<svg width="285" height="43" viewBox="0 0 285 43" fill="none" xmlns="http://www.w3.org/2000/svg">
<path d="M28.7412 21.4913C29.0532 21.5753 29.3892 21.6473 29.7492 21.7073C30.1092 21.7553 30.5052 21.7793 30.9372 21.7793C31.6692 21.7793 32.3172 21.6773 32.8812 21.4733C33.4452 21.2693 33.9132 20.9933 34.2852 20.6453C34.6692 20.2853 34.9572 19.8773 35.1492 19.4213C35.3412 18.9533 35.4372 18.4553 35.4372 17.9273C35.4372 17.4233 35.3532 16.9433 35.1852 16.4873C35.0172 16.0193 34.7592 15.6173 34.4112 15.2813C34.0752 14.9333 33.6492 14.6573 33.1332 14.4533C32.6172 14.2493 32.0112 14.1473 31.3152 14.1473H27.1032V26.7473H28.7412V21.4913ZM28.7412 14.9393H30.6312C31.1352 14.9393 31.5792 15.0293 31.9632 15.2093C32.3472 15.3893 32.6652 15.6293 32.9172 15.9293C33.1692 16.2173 33.3552 16.5473 33.4752 16.9193C33.6072 17.2793 33.6732 17.6393 33.6732 17.9993C33.6732 18.3473 33.6132 18.7013 33.4932 19.0613C33.3852 19.4093 33.2052 19.7273 32.9532 20.0153C32.7012 20.3033 32.3832 20.5373 31.9992 20.7173C31.6152 20.8973 31.1532 20.9873 30.6132 20.9873C30.2412 20.9873 29.8992 20.9753 29.5872 20.9513C29.2752 20.9153 28.9932 20.8493 28.7412 20.7533V14.9393ZM49.1442 23.0393L50.8722 26.7473H52.6182L46.7502 14.1473H45.8502L40.5222 26.7473H41.3502L42.9342 23.0393H49.1442ZM48.7662 22.2293H43.2762L45.8682 16.1633H45.9402L48.7662 22.2293ZM56.0886 14.1473L60.4446 21.9773V26.7473H62.0826V21.8153L66.5106 14.1473H65.5386L61.6866 20.7893H61.6146L57.9426 14.1473H56.0886ZM74.4287 14.1473H73.2047V26.7473H73.9967V16.4693H74.0687L79.6307 26.9633H79.9547L85.6427 16.5413H85.7147V26.7473H87.3527V14.1473H86.1107L80.2787 24.9653H80.2067L74.4287 14.1473ZM95.6793 14.1473V26.7473H103.815V25.7573H97.3173V20.4833H102.897V19.6553H97.3173V15.1373H103.815V14.1473H95.6793ZM120.659 14.1473V23.7773H120.587L110.597 13.9313H110.507V26.7473H111.335V17.1173H111.407L121.397 26.9633H121.487V14.1473H120.659ZM134.462 26.7473V15.1373H139.286V14.1473H128V15.1373H132.824V26.7473H134.462ZM157.323 14.1473H156.099V26.7473H156.891V16.4693H156.963L162.525 26.9633H162.849L168.537 16.5413H168.609V26.7473H170.247V14.1473H169.005L163.173 24.9653H163.101L157.323 14.1473ZM178.574 14.1473V26.7473H186.71V25.7573H180.212V20.4833H185.792V19.6553H180.212V15.1373H186.71V14.1473H178.574ZM198.064 26.7473V15.1373H202.888V14.1473H191.602V15.1373H196.426V26.7473H198.064ZM211.046 20.4833H218.588V26.7473H220.226V14.1473H218.588V19.6553H211.046V14.1473H209.408V26.7473H211.046V20.4833ZM227.283 20.4473C227.283 21.1193 227.409 21.8393 227.661 22.6073C227.925 23.3633 228.333 24.0653 228.885 24.7133C229.437 25.3613 230.139 25.9013 230.991 26.3333C231.843 26.7533 232.863 26.9633 234.051 26.9633C234.855 26.9633 235.581 26.8673 236.229 26.6753C236.889 26.4713 237.477 26.2013 237.993 25.8653C238.521 25.5293 238.977 25.1453 239.361 24.7133C239.745 24.2693 240.057 23.8073 240.297 23.3273C240.549 22.8353 240.735 22.3433 240.855 21.8513C240.987 21.3593 241.053 20.8913 241.053 20.4473C241.053 19.7753 240.915 19.0613 240.639 18.3053C240.363 17.5373 239.937 16.8293 239.361 16.1813C238.785 15.5333 238.053 14.9993 237.165 14.5793C236.289 14.1473 235.251 13.9313 234.051 13.9313C232.863 13.9313 231.843 14.1413 230.991 14.5613C230.139 14.9813 229.437 15.5153 228.885 16.1633C228.333 16.7993 227.925 17.5013 227.661 18.2693C227.409 19.0373 227.283 19.7633 227.283 20.4473ZM229.047 20.4473C229.047 19.6073 229.173 18.8393 229.425 18.1433C229.689 17.4353 230.043 16.8293 230.487 16.3253C230.943 15.8213 231.477 15.4313 232.089 15.1553C232.701 14.8673 233.367 14.7233 234.087 14.7233C234.795 14.7233 235.461 14.8673 236.085 15.1553C236.721 15.4313 237.273 15.8213 237.741 16.3253C238.221 16.8293 238.599 17.4353 238.875 18.1433C239.151 18.8393 239.289 19.6073 239.289 20.4473C239.289 21.2873 239.151 22.0613 238.875 22.7693C238.599 23.4653 238.221 24.0653 237.741 24.5693C237.273 25.0733 236.721 25.4693 236.085 25.7573C235.461 26.0333 234.795 26.1713 234.087 26.1713C233.367 26.1713 232.701 26.0333 232.089 25.7573C231.477 25.4693 230.943 25.0733 230.487 24.5693C230.043 24.0653 229.689 23.4653 229.425 22.7693C229.173 22.0613 229.047 21.2873 229.047 20.4473ZM248.297 26.7473V14.1473H252.437C253.433 14.1473 254.345 14.3093 255.173 14.6333C256.001 14.9453 256.709 15.3833 257.297 15.9473C257.897 16.4993 258.359 17.1593 258.683 17.9273C259.019 18.6953 259.187 19.5233 259.187 20.4113C259.187 21.3353 259.013 22.1873 258.665 22.9673C258.329 23.7353 257.861 24.4013 257.261 24.9653C256.673 25.5293 255.983 25.9673 255.191 26.2793C254.399 26.5913 253.553 26.7473 252.653 26.7473H248.297ZM249.935 25.9553H251.915C252.899 25.9553 253.733 25.7933 254.417 25.4693C255.113 25.1333 255.683 24.7013 256.127 24.1733C256.571 23.6453 256.895 23.0573 257.099 22.4093C257.303 21.7493 257.405 21.0953 257.405 20.4473C257.405 19.7273 257.285 19.0373 257.045 18.3773C256.805 17.7053 256.451 17.1173 255.983 16.6133C255.527 16.0973 254.957 15.6893 254.273 15.3893C253.589 15.0893 252.803 14.9393 251.915 14.9393H249.935V25.9553Z" fill="black"/>
<path d="M142.409 42.5776L146.959 38.028H204.811V37.8212H146.959L142.409 33.3233L137.912 37.8212H79.8525V38.028H137.912L142.409 42.5776ZM142.409 33.6335L146.752 37.9246L142.409 42.2674L138.067 37.9246L142.409 33.6335Z" fill="#555555"/>
</svg>
