<svg width="155" height="48" viewBox="0 0 155 48" fill="none" xmlns="http://www.w3.org/2000/svg">
<path d="M14.0528 17.8V29H21.2848V28.12H15.5088V23.432H20.4688V22.696H15.5088V18.68H21.2848V17.8H14.0528ZM25.6938 25.688L28.1418 29H29.7738L26.5098 24.616L29.1978 21H28.2698L26.0458 23.992L23.8538 21H22.2378L25.2298 25.064L22.2538 29H23.1978L25.6938 25.688ZM31.5378 33H32.8978V27.688H32.9618C33.0685 27.9653 33.2071 28.2 33.3778 28.392C33.5591 28.584 33.7618 28.7387 33.9858 28.856C34.2098 28.9733 34.4445 29.0587 34.6898 29.112C34.9458 29.1653 35.2018 29.192 35.4578 29.192C35.9911 29.192 36.4818 29.096 36.9298 28.904C37.3778 28.7013 37.7618 28.4187 38.0818 28.056C38.4125 27.6933 38.6685 27.256 38.8498 26.744C39.0311 26.2213 39.1218 25.6453 39.1218 25.016C39.1218 24.376 39.0311 23.8 38.8498 23.288C38.6685 22.776 38.4125 22.3387 38.0818 21.976C37.7618 21.6027 37.3778 21.32 36.9298 21.128C36.4818 20.9253 35.9911 20.824 35.4578 20.824C34.1885 20.824 33.3565 21.3147 32.9618 22.296H32.8978V21H31.5378V33ZM32.8978 24.2C32.8978 23.848 32.9511 23.5173 33.0578 23.208C33.1751 22.888 33.3351 22.616 33.5378 22.392C33.7405 22.1573 33.9751 21.976 34.2418 21.848C34.5191 21.7093 34.8125 21.64 35.1218 21.64C35.4525 21.64 35.7671 21.704 36.0658 21.832C36.3751 21.9493 36.6418 22.1413 36.8658 22.408C37.0898 22.6747 37.2658 23.0213 37.3938 23.448C37.5325 23.8747 37.6018 24.3867 37.6018 24.984C37.6018 25.592 37.5325 26.1093 37.3938 26.536C37.2658 26.9627 37.0845 27.3147 36.8498 27.592C36.6258 27.8587 36.3645 28.056 36.0658 28.184C35.7671 28.3013 35.4525 28.36 35.1218 28.36C34.8231 28.36 34.5405 28.3013 34.2738 28.184C34.0071 28.056 33.7725 27.8747 33.5698 27.64C33.3671 27.3947 33.2018 27.1013 33.0738 26.76C32.9565 26.4187 32.8978 26.0293 32.8978 25.592V24.2ZM42.8741 17.8H41.5141V29H42.8741V17.8ZM53.5646 25.016C53.5646 25.5707 53.4686 26.104 53.2766 26.616C53.0846 27.1173 52.8072 27.56 52.4446 27.944C52.0926 28.328 51.6606 28.632 51.1486 28.856C50.6472 29.08 50.0819 29.192 49.4526 29.192C48.8126 29.192 48.2312 29.08 47.7086 28.856C47.1966 28.6213 46.7592 28.312 46.3966 27.928C46.0446 27.544 45.7672 27.1013 45.5646 26.6C45.3726 26.088 45.2766 25.56 45.2766 25.016C45.2766 24.4613 45.3726 23.9333 45.5646 23.432C45.7672 22.92 46.0446 22.472 46.3966 22.088C46.7592 21.704 47.1966 21.4 47.7086 21.176C48.2312 20.9413 48.8126 20.824 49.4526 20.824C50.0819 20.824 50.6472 20.9413 51.1486 21.176C51.6606 21.4 52.0926 21.704 52.4446 22.088C52.8072 22.472 53.0846 22.92 53.2766 23.432C53.4686 23.9333 53.5646 24.4613 53.5646 25.016ZM52.0446 25.016C52.0446 24.2693 51.9646 23.6667 51.8046 23.208C51.6446 22.7387 51.4366 22.376 51.1806 22.12C50.9246 21.864 50.6419 21.6933 50.3326 21.608C50.0232 21.512 49.7246 21.464 49.4366 21.464C49.1486 21.464 48.8499 21.512 48.5406 21.608C48.2312 21.6933 47.9432 21.864 47.6766 22.12C47.4206 22.376 47.2072 22.7387 47.0366 23.208C46.8766 23.6667 46.7966 24.2693 46.7966 25.016C46.7966 25.752 46.8766 26.3547 47.0366 26.824C47.2072 27.2827 47.4206 27.64 47.6766 27.896C47.9432 28.152 48.2312 28.328 48.5406 28.424C48.8499 28.5093 49.1486 28.552 49.4366 28.552C49.7246 28.552 50.0232 28.5093 50.3326 28.424C50.6419 28.328 50.9246 28.152 51.1806 27.896C51.4366 27.64 51.6446 27.2827 51.8046 26.824C51.9646 26.3547 52.0446 25.752 52.0446 25.016ZM55.6472 21V29H57.0072V24.168C57.0072 23.7307 57.0552 23.3627 57.1512 23.064C57.2579 22.7547 57.3912 22.504 57.5512 22.312C57.7112 22.12 57.8872 21.9813 58.0792 21.896C58.2712 21.8107 58.4579 21.768 58.6392 21.768C58.8845 21.768 59.1085 21.848 59.3112 22.008C59.5245 22.168 59.6792 22.3173 59.7752 22.456L60.3192 21.464C60.2232 21.336 60.1059 21.2293 59.9672 21.144C59.8392 21.0587 59.7059 20.9947 59.5672 20.952C59.4392 20.8987 59.3165 20.8667 59.1992 20.856C59.0925 20.8347 59.0125 20.824 58.9592 20.824C58.5112 20.824 58.1379 20.9467 57.8392 21.192C57.5405 21.4373 57.2952 21.8 57.1032 22.28H57.0072V21H55.6472ZM68.8606 25.352V25.016C68.8606 24.3013 68.7592 23.6827 68.5566 23.16C68.3539 22.6373 68.0766 22.2053 67.7246 21.864C67.3832 21.5227 66.9832 21.2667 66.5246 21.096C66.0659 20.9253 65.5806 20.84 65.0686 20.84C64.5246 20.84 64.0232 20.936 63.5646 21.128C63.1059 21.3093 62.7059 21.5813 62.3646 21.944C62.0232 22.296 61.7566 22.728 61.5646 23.24C61.3726 23.7413 61.2766 24.312 61.2766 24.952C61.2766 25.4853 61.3566 26.008 61.5166 26.52C61.6872 27.0213 61.9379 27.4747 62.2686 27.88C62.6099 28.2747 63.0366 28.5947 63.5486 28.84C64.0712 29.0747 64.6846 29.192 65.3886 29.192C66.0712 29.192 66.7006 29.0747 67.2766 28.84C67.8526 28.5947 68.3539 28.248 68.7806 27.8L68.2686 27.288C68.0446 27.48 67.8312 27.656 67.6286 27.816C67.4366 27.976 67.2392 28.1093 67.0366 28.216C66.8339 28.3227 66.6206 28.408 66.3966 28.472C66.1832 28.5253 65.9432 28.552 65.6766 28.552C65.3779 28.552 65.0579 28.5093 64.7166 28.424C64.3859 28.328 64.0766 28.1627 63.7886 27.928C63.5006 27.6933 63.2606 27.368 63.0686 26.952C62.8766 26.536 62.7806 26.0027 62.7806 25.352H68.8606ZM62.7806 24.712C62.7806 24.2853 62.8232 23.8747 62.9086 23.48C63.0046 23.0747 63.1432 22.7173 63.3246 22.408C63.5166 22.0987 63.7566 21.8533 64.0446 21.672C64.3326 21.48 64.6739 21.384 65.0686 21.384C65.8259 21.384 66.4126 21.6827 66.8286 22.28C67.2552 22.8667 67.4686 23.6773 67.4686 24.712H62.7806ZM78.2658 17.8H77.1778V29H77.8818V19.864H77.9458L82.8898 29.192H83.1778L88.2338 19.928H88.2978V29H89.7538V17.8H88.6498L83.4658 27.416H83.4018L78.2658 17.8ZM100.768 25.016C100.768 25.5707 100.672 26.104 100.48 26.616C100.288 27.1173 100.01 27.56 99.6477 27.944C99.2957 28.328 98.8637 28.632 98.3517 28.856C97.8504 29.08 97.285 29.192 96.6557 29.192C96.0157 29.192 95.4344 29.08 94.9117 28.856C94.3997 28.6213 93.9624 28.312 93.5997 27.928C93.2477 27.544 92.9704 27.1013 92.7677 26.6C92.5757 26.088 92.4797 25.56 92.4797 25.016C92.4797 24.4613 92.5757 23.9333 92.7677 23.432C92.9704 22.92 93.2477 22.472 93.5997 22.088C93.9624 21.704 94.3997 21.4 94.9117 21.176C95.4344 20.9413 96.0157 20.824 96.6557 20.824C97.285 20.824 97.8504 20.9413 98.3517 21.176C98.8637 21.4 99.2957 21.704 99.6477 22.088C100.01 22.472 100.288 22.92 100.48 23.432C100.672 23.9333 100.768 24.4613 100.768 25.016ZM99.2477 25.016C99.2477 24.2693 99.1677 23.6667 99.0077 23.208C98.8477 22.7387 98.6397 22.376 98.3837 22.12C98.1277 21.864 97.845 21.6933 97.5357 21.608C97.2264 21.512 96.9277 21.464 96.6397 21.464C96.3517 21.464 96.053 21.512 95.7437 21.608C95.4344 21.6933 95.1464 21.864 94.8797 22.12C94.6237 22.376 94.4104 22.7387 94.2397 23.208C94.0797 23.6667 93.9997 24.2693 93.9997 25.016C93.9997 25.752 94.0797 26.3547 94.2397 26.824C94.4104 27.2827 94.6237 27.64 94.8797 27.896C95.1464 28.152 95.4344 28.328 95.7437 28.424C96.053 28.5093 96.3517 28.552 96.6397 28.552C96.9277 28.552 97.2264 28.5093 97.5357 28.424C97.845 28.328 98.1277 28.152 98.3837 27.896C98.6397 27.64 98.8477 27.2827 99.0077 26.824C99.1677 26.3547 99.2477 25.752 99.2477 25.016ZM102.85 21V29H104.21V24.168C104.21 23.7307 104.258 23.3627 104.354 23.064C104.461 22.7547 104.594 22.504 104.754 22.312C104.914 22.12 105.09 21.9813 105.282 21.896C105.474 21.8107 105.661 21.768 105.842 21.768C106.088 21.768 106.312 21.848 106.514 22.008C106.728 22.168 106.882 22.3173 106.978 22.456L107.522 21.464C107.426 21.336 107.309 21.2293 107.17 21.144C107.042 21.0587 106.909 20.9947 106.77 20.952C106.642 20.8987 106.52 20.8667 106.402 20.856C106.296 20.8347 106.216 20.824 106.162 20.824C105.714 20.824 105.341 20.9467 105.042 21.192C104.744 21.4373 104.498 21.8 104.306 22.28H104.21V21H102.85ZM116.064 25.352V25.016C116.064 24.3013 115.962 23.6827 115.76 23.16C115.557 22.6373 115.28 22.2053 114.928 21.864C114.586 21.5227 114.186 21.2667 113.728 21.096C113.269 20.9253 112.784 20.84 112.272 20.84C111.728 20.84 111.226 20.936 110.768 21.128C110.309 21.3093 109.909 21.5813 109.568 21.944C109.226 22.296 108.96 22.728 108.768 23.24C108.576 23.7413 108.48 24.312 108.48 24.952C108.48 25.4853 108.56 26.008 108.72 26.52C108.89 27.0213 109.141 27.4747 109.472 27.88C109.813 28.2747 110.24 28.5947 110.752 28.84C111.274 29.0747 111.888 29.192 112.592 29.192C113.274 29.192 113.904 29.0747 114.48 28.84C115.056 28.5947 115.557 28.248 115.984 27.8L115.472 27.288C115.248 27.48 115.034 27.656 114.832 27.816C114.64 27.976 114.442 28.1093 114.24 28.216C114.037 28.3227 113.824 28.408 113.6 28.472C113.386 28.5253 113.146 28.552 112.88 28.552C112.581 28.552 112.261 28.5093 111.92 28.424C111.589 28.328 111.28 28.1627 110.992 27.928C110.704 27.6933 110.464 27.368 110.272 26.952C110.08 26.536 109.984 26.0027 109.984 25.352H116.064ZM109.984 24.712C109.984 24.2853 110.026 23.8747 110.112 23.48C110.208 23.0747 110.346 22.7173 110.528 22.408C110.72 22.0987 110.96 21.8533 111.248 21.672C111.536 21.48 111.877 21.384 112.272 21.384C113.029 21.384 113.616 21.6827 114.032 22.28C114.458 22.8667 114.672 23.6773 114.672 24.712H109.984Z" fill="black"/>
<path d="M135.712 18.75L140.75 24L135.712 29.25" stroke="#14142B"/>
<line x1="140.471" y1="24.2067" x2="127.171" y2="24.2067" stroke="#14142B"/>
</svg>
