<svg width="375" height="90" viewBox="0 0 375 90" fill="none" xmlns="http://www.w3.org/2000/svg">
<rect opacity="0.1" x="197.251" y="1.89374" width="72.7487" height="36" rx="18" fill="#C4C4C4"/>
<circle opacity="0.1" cx="296" cy="20.1062" r="18" fill="#C4C4C4"/>
<circle opacity="0.1" cx="341" cy="20.1062" r="18" fill="#C4C4C4"/>
<path d="M21.6563 23.2986H22.9863V24.0406H21.6563V26.3926H20.5223V24.0406H16.3083L21.1383 16.5926H21.6563V23.2986ZM17.4003 23.2986H20.5223V18.4686L17.4003 23.2986ZM26.0226 20.1066C26.2839 20.004 26.5172 19.9293 26.7226 19.8826C26.9372 19.8266 27.1752 19.7986 27.4366 19.7986C27.8846 19.7986 28.2999 19.8733 28.6826 20.0226C29.0652 20.1626 29.3966 20.3726 29.6766 20.6526C29.9659 20.9233 30.1899 21.25 30.3486 21.6326C30.5166 22.0153 30.6006 22.4446 30.6006 22.9206C30.6006 23.4993 30.5026 24.0126 30.3066 24.4606C30.1199 24.9086 29.8586 25.2866 29.5226 25.5946C29.1959 25.9026 28.8086 26.1406 28.3606 26.3086C27.9219 26.4673 27.4506 26.5466 26.9466 26.5466C26.5172 26.5466 26.1206 26.486 25.7566 26.3646C25.4019 26.234 25.0939 26.0613 24.8326 25.8466C24.5712 25.632 24.3612 25.3753 24.2026 25.0766C24.0532 24.778 23.9739 24.4606 23.9646 24.1246H24.9866C24.9959 24.3766 25.0472 24.6146 25.1406 24.8386C25.2339 25.0533 25.3599 25.2446 25.5186 25.4126C25.6866 25.5713 25.8872 25.6973 26.1206 25.7906C26.3539 25.884 26.6199 25.9306 26.9186 25.9306C27.1892 25.9306 27.4599 25.8793 27.7306 25.7766C28.0012 25.6646 28.2439 25.492 28.4586 25.2586C28.6826 25.016 28.8599 24.7126 28.9906 24.3486C29.1306 23.9753 29.2006 23.5273 29.2006 23.0046C29.2006 22.2673 29.0046 21.67 28.6126 21.2126C28.2206 20.7553 27.6326 20.5266 26.8486 20.5266C26.6619 20.5266 26.4052 20.5453 26.0786 20.5826C25.7519 20.62 25.3879 20.7413 24.9866 20.9466L26.2326 16.5926H30.4746L30.1946 17.3626H26.8346L26.0226 20.1066ZM32.2869 21.5206C32.2869 21.25 32.3056 20.9373 32.3429 20.5826C32.3896 20.2186 32.4596 19.85 32.5529 19.4766C32.6556 19.094 32.7862 18.7206 32.9449 18.3566C33.1129 17.9926 33.3182 17.6706 33.5609 17.3906C33.8036 17.1013 34.0929 16.868 34.4289 16.6906C34.7649 16.5133 35.1569 16.4246 35.6049 16.4246C36.0529 16.4246 36.4449 16.5133 36.7809 16.6906C37.1262 16.868 37.4202 17.1013 37.6629 17.3906C37.9149 17.6706 38.1249 17.9926 38.2929 18.3566C38.4609 18.7206 38.5916 19.094 38.6849 19.4766C38.7876 19.85 38.8576 20.2186 38.8949 20.5826C38.9416 20.9373 38.9649 21.25 38.9649 21.5206C38.9649 22.1086 38.8996 22.7013 38.7689 23.2986C38.6382 23.8866 38.4329 24.4233 38.1529 24.9086C37.8822 25.394 37.5322 25.7906 37.1029 26.0986C36.6829 26.3973 36.1836 26.5466 35.6049 26.5466C35.0262 26.5466 34.5269 26.3973 34.1069 26.0986C33.6962 25.7906 33.3556 25.394 33.0849 24.9086C32.8142 24.4233 32.6136 23.8866 32.4829 23.2986C32.3522 22.7013 32.2869 22.1086 32.2869 21.5206ZM33.6869 21.5206C33.6869 21.9966 33.7056 22.496 33.7429 23.0186C33.7802 23.5413 33.8642 24.0173 33.9949 24.4466C34.1349 24.876 34.3309 25.2306 34.5829 25.5106C34.8349 25.7906 35.1756 25.9306 35.6049 25.9306C36.0436 25.9306 36.3936 25.7906 36.6549 25.5106C36.9162 25.2306 37.1122 24.876 37.2429 24.4466C37.3829 24.0173 37.4716 23.5413 37.5089 23.0186C37.5462 22.496 37.5649 21.9966 37.5649 21.5206C37.5649 21.0353 37.5462 20.5266 37.5089 19.9946C37.4716 19.4626 37.3829 18.982 37.2429 18.5526C37.1122 18.114 36.9162 17.7546 36.6549 17.4746C36.3936 17.1853 36.0436 17.0406 35.6049 17.0406C35.1756 17.0406 34.8349 17.1853 34.5829 17.4746C34.3309 17.7546 34.1349 18.114 33.9949 18.5526C33.8642 18.982 33.7802 19.4626 33.7429 19.9946C33.7056 20.5266 33.6869 21.0353 33.6869 21.5206ZM40.6404 21.5206C40.6404 21.25 40.6591 20.9373 40.6964 20.5826C40.7431 20.2186 40.8131 19.85 40.9064 19.4766C41.0091 19.094 41.1397 18.7206 41.2984 18.3566C41.4664 17.9926 41.6717 17.6706 41.9144 17.3906C42.1571 17.1013 42.4464 16.868 42.7824 16.6906C43.1184 16.5133 43.5104 16.4246 43.9584 16.4246C44.4064 16.4246 44.7984 16.5133 45.1344 16.6906C45.4797 16.868 45.7737 17.1013 46.0164 17.3906C46.2684 17.6706 46.4784 17.9926 46.6464 18.3566C46.8144 18.7206 46.9451 19.094 47.0384 19.4766C47.1411 19.85 47.2111 20.2186 47.2484 20.5826C47.2951 20.9373 47.3184 21.25 47.3184 21.5206C47.3184 22.1086 47.2531 22.7013 47.1224 23.2986C46.9917 23.8866 46.7864 24.4233 46.5064 24.9086C46.2357 25.394 45.8857 25.7906 45.4564 26.0986C45.0364 26.3973 44.5371 26.5466 43.9584 26.5466C43.3797 26.5466 42.8804 26.3973 42.4604 26.0986C42.0497 25.7906 41.7091 25.394 41.4384 24.9086C41.1677 24.4233 40.9671 23.8866 40.8364 23.2986C40.7057 22.7013 40.6404 22.1086 40.6404 21.5206ZM42.0404 21.5206C42.0404 21.9966 42.0591 22.496 42.0964 23.0186C42.1337 23.5413 42.2177 24.0173 42.3484 24.4466C42.4884 24.876 42.6844 25.2306 42.9364 25.5106C43.1884 25.7906 43.5291 25.9306 43.9584 25.9306C44.3971 25.9306 44.7471 25.7906 45.0084 25.5106C45.2697 25.2306 45.4657 24.876 45.5964 24.4466C45.7364 24.0173 45.8251 23.5413 45.8624 23.0186C45.8997 22.496 45.9184 21.9966 45.9184 21.5206C45.9184 21.0353 45.8997 20.5266 45.8624 19.9946C45.8251 19.4626 45.7364 18.982 45.5964 18.5526C45.4657 18.114 45.2697 17.7546 45.0084 17.4746C44.7471 17.1853 44.3971 17.0406 43.9584 17.0406C43.5291 17.0406 43.1884 17.1853 42.9364 17.4746C42.6844 17.7546 42.4884 18.114 42.3484 18.5526C42.2177 18.982 42.1337 19.4626 42.0964 19.9946C42.0591 20.5266 42.0404 21.0353 42.0404 21.5206ZM60.1745 23.5086L61.5185 26.3926H62.8765L58.3125 16.5926H57.6125L53.4685 26.3926H54.1125L55.3445 23.5086H60.1745ZM59.8805 22.8786H55.6105L57.6265 18.1606H57.6825L59.8805 22.8786ZM66.2564 22.3046C66.499 22.37 66.7604 22.426 67.0404 22.4726C67.3204 22.51 67.6284 22.5286 67.9644 22.5286C68.5337 22.5286 69.0377 22.4493 69.4764 22.2906C69.915 22.132 70.279 21.9173 70.5684 21.6466C70.867 21.3666 71.091 21.0493 71.2404 20.6946C71.3897 20.3306 71.4644 19.9433 71.4644 19.5326C71.4644 19.1406 71.399 18.7673 71.2684 18.4126C71.1377 18.0486 70.937 17.736 70.6664 17.4746C70.405 17.204 70.0737 16.9893 69.6724 16.8306C69.271 16.672 68.7997 16.5926 68.2584 16.5926H64.9824V26.3926H66.2564V22.3046ZM66.2564 17.2086H67.7264C68.1184 17.2086 68.4637 17.2786 68.7624 17.4186C69.061 17.5586 69.3084 17.7453 69.5044 17.9786C69.7004 18.2026 69.845 18.4593 69.9384 18.7486C70.041 19.0286 70.0924 19.3086 70.0924 19.5886C70.0924 19.8593 70.0457 20.1346 69.9524 20.4146C69.8684 20.6853 69.7284 20.9326 69.5324 21.1566C69.3364 21.3806 69.089 21.5626 68.7904 21.7026C68.4917 21.8426 68.1324 21.9126 67.7124 21.9126C67.423 21.9126 67.157 21.9033 66.9144 21.8846C66.6717 21.8566 66.4524 21.8053 66.2564 21.7306V17.2086ZM74.8423 22.3046C75.085 22.37 75.3463 22.426 75.6263 22.4726C75.9063 22.51 76.2143 22.5286 76.5503 22.5286C77.1196 22.5286 77.6236 22.4493 78.0623 22.2906C78.501 22.132 78.865 21.9173 79.1543 21.6466C79.453 21.3666 79.677 21.0493 79.8263 20.6946C79.9756 20.3306 80.0503 19.9433 80.0503 19.5326C80.0503 19.1406 79.985 18.7673 79.8543 18.4126C79.7236 18.0486 79.523 17.736 79.2523 17.4746C78.991 17.204 78.6596 16.9893 78.2583 16.8306C77.857 16.672 77.3856 16.5926 76.8443 16.5926H73.5683V26.3926H74.8423V22.3046ZM74.8423 17.2086H76.3123C76.7043 17.2086 77.0496 17.2786 77.3483 17.4186C77.647 17.5586 77.8943 17.7453 78.0903 17.9786C78.2863 18.2026 78.431 18.4593 78.5243 18.7486C78.627 19.0286 78.6783 19.3086 78.6783 19.5886C78.6783 19.8593 78.6316 20.1346 78.5383 20.4146C78.4543 20.6853 78.3143 20.9326 78.1183 21.1566C77.9223 21.3806 77.675 21.5626 77.3763 21.7026C77.0776 21.8426 76.7183 21.9126 76.2983 21.9126C76.009 21.9126 75.743 21.9033 75.5003 21.8846C75.2576 21.8566 75.0383 21.8053 74.8423 21.7306V17.2086ZM87.6002 23.5086L88.9442 26.3926H90.3022L85.7382 16.5926H85.0382L80.8942 26.3926H81.5382L82.7702 23.5086H87.6002ZM87.3062 22.8786H83.0362L85.0522 18.1606H85.1082L87.3062 22.8786ZM92.4081 16.5926V26.3926H93.6821V22.0666H94.2981C94.5595 22.0666 94.7741 22.09 94.9421 22.1366C95.1195 22.1833 95.2781 22.2626 95.4181 22.3746C95.5581 22.4866 95.6888 22.6313 95.8101 22.8086C95.9315 22.986 96.0761 23.2053 96.2441 23.4666L97.3501 25.1046C97.4901 25.3193 97.6255 25.5153 97.7561 25.6926C97.8961 25.87 98.0455 26.024 98.2041 26.1546C98.3628 26.276 98.5401 26.374 98.7361 26.4486C98.9415 26.5233 99.1841 26.5606 99.4641 26.5606C99.6695 26.5606 99.8375 26.5513 99.9681 26.5326C100.099 26.514 100.229 26.4673 100.36 26.3926V25.8746C100.313 25.884 100.267 25.8933 100.22 25.9026C100.173 25.9026 100.127 25.9026 100.08 25.9026C99.8841 25.9026 99.7115 25.8746 99.5622 25.8186C99.4128 25.7626 99.2728 25.6833 99.1421 25.5806C99.0115 25.4686 98.8855 25.338 98.7641 25.1886C98.6428 25.03 98.5168 24.8526 98.3862 24.6566C97.9941 24.0873 97.6908 23.6346 97.4761 23.2986C97.2615 22.9533 97.0888 22.6873 96.9581 22.5006C96.8368 22.314 96.7341 22.1786 96.6501 22.0946C96.5755 22.0106 96.4821 21.9406 96.3701 21.8846L96.2301 21.8146V21.7586C96.6781 21.7306 97.0608 21.6326 97.3781 21.4646C97.7048 21.2966 97.9708 21.0866 98.1761 20.8346C98.3815 20.5826 98.5308 20.312 98.6241 20.0226C98.7175 19.724 98.7641 19.4346 98.7641 19.1546C98.7641 18.9026 98.7128 18.6273 98.6101 18.3286C98.5168 18.03 98.3488 17.7546 98.1061 17.5026C97.8728 17.2413 97.5508 17.0266 97.1401 16.8586C96.7295 16.6813 96.2115 16.5926 95.5861 16.5926H92.4081ZM93.6821 17.2086H95.0961C95.4508 17.2086 95.7681 17.26 96.0481 17.3626C96.3375 17.4653 96.5848 17.61 96.7901 17.7966C96.9955 17.974 97.1495 18.1886 97.2521 18.4406C97.3641 18.6926 97.4201 18.968 97.4201 19.2666C97.4201 19.5186 97.3688 19.7753 97.2661 20.0366C97.1728 20.2886 97.0281 20.522 96.8321 20.7366C96.6361 20.942 96.3935 21.11 96.1041 21.2406C95.8241 21.3713 95.4975 21.4366 95.1241 21.4366H93.6821V17.2086ZM102.457 16.5926V26.3926H108.785V25.6226H103.731V21.5206H108.071V20.8766H103.731V17.3626H108.785V16.5926H102.457ZM110.879 26.3926V16.5926H112.153V25.6226H117.207V26.3926H110.879Z" fill="#333333"/>
<path d="M222.069 14.1285V21.0835H222.017L214.802 13.9725H214.737V23.2285H215.335V16.2735H215.387L222.602 23.3845H222.667V14.1285H222.069ZM231.034 20.2645V19.9915C231.034 19.4108 230.952 18.9082 230.787 18.4835C230.622 18.0588 230.397 17.7078 230.111 17.4305C229.834 17.1532 229.509 16.9452 229.136 16.8065C228.763 16.6678 228.369 16.5985 227.953 16.5985C227.511 16.5985 227.104 16.6765 226.731 16.8325C226.358 16.9798 226.033 17.2008 225.756 17.4955C225.479 17.7815 225.262 18.1325 225.106 18.5485C224.95 18.9558 224.872 19.4195 224.872 19.9395C224.872 20.3728 224.937 20.7975 225.067 21.2135C225.206 21.6208 225.409 21.9892 225.678 22.3185C225.955 22.6392 226.302 22.8992 226.718 23.0985C227.143 23.2892 227.641 23.3845 228.213 23.3845C228.768 23.3845 229.279 23.2892 229.747 23.0985C230.215 22.8992 230.622 22.6175 230.969 22.2535L230.553 21.8375C230.371 21.9935 230.198 22.1365 230.033 22.2665C229.877 22.3965 229.717 22.5048 229.552 22.5915C229.387 22.6782 229.214 22.7475 229.032 22.7995C228.859 22.8428 228.664 22.8645 228.447 22.8645C228.204 22.8645 227.944 22.8298 227.667 22.7605C227.398 22.6825 227.147 22.5482 226.913 22.3575C226.679 22.1668 226.484 21.9025 226.328 21.5645C226.172 21.2265 226.094 20.7932 226.094 20.2645H231.034ZM226.094 19.7445C226.094 19.3978 226.129 19.0642 226.198 18.7435C226.276 18.4142 226.389 18.1238 226.536 17.8725C226.692 17.6212 226.887 17.4218 227.121 17.2745C227.355 17.1185 227.632 17.0405 227.953 17.0405C228.568 17.0405 229.045 17.2832 229.383 17.7685C229.73 18.2452 229.903 18.9038 229.903 19.7445H226.094ZM231.947 16.7285L234.196 23.2285H234.898L236.406 18.8735H236.458L238.148 23.2285H238.759L241.125 16.7285H240.449L238.681 21.5905H238.629L236.783 16.7285H236.523L234.82 21.6295H234.768L233.078 16.7285H231.947Z" fill="#555555"/>
<g opacity="0.5">
<path d="M296.171 24.2729H302.647" stroke="#14142B"/>
<path d="M296.19 15.9396H302.667" stroke="#14142B"/>
<rect x="288.178" y="13.0688" width="5.66667" height="5.66667" stroke="#14142A"/>
<rect x="288.178" y="21.4515" width="5.66667" height="5.66667" stroke="#14142A"/>
</g>
<g opacity="0.5">
<path d="M252.715 22.2747L249.236 17.5745L256.194 17.5745L252.715 22.2747Z" fill="#333333"/>
</g>
<path fill-rule="evenodd" clip-rule="evenodd" d="M333.5 18.3562V19.1896H348.5V18.3562H333.5ZM339.333 25.8562H342.667V25.0229H339.333V25.8562ZM346 22.5229H336V21.6896H346V22.5229Z" fill="#DD8560"/>
</svg>
