<svg width="227" height="43" viewBox="0 0 227 43" fill="none" xmlns="http://www.w3.org/2000/svg">
<path d="M58.674 24.4253C57.45 25.5773 55.998 26.1533 54.318 26.1533C53.382 26.1533 52.554 25.9913 51.834 25.6673C51.114 25.3433 50.514 24.9113 50.034 24.3713C49.554 23.8313 49.188 23.2073 48.936 22.4993C48.696 21.7913 48.576 21.0533 48.576 20.2853C48.576 19.4693 48.702 18.7253 48.954 18.0533C49.218 17.3693 49.584 16.7813 50.052 16.2893C50.52 15.7973 51.072 15.4133 51.708 15.1373C52.356 14.8613 53.058 14.7233 53.814 14.7233C54.33 14.7233 54.798 14.7833 55.218 14.9033C55.65 15.0233 56.028 15.1793 56.352 15.3713C56.688 15.5633 56.958 15.7853 57.162 16.0373C57.378 16.2773 57.528 16.5233 57.612 16.7753H58.944C58.764 16.3673 58.53 15.9893 58.242 15.6413C57.966 15.2933 57.618 14.9933 57.198 14.7413C56.778 14.4893 56.286 14.2913 55.722 14.1473C55.158 14.0033 54.516 13.9313 53.796 13.9313C52.752 13.9313 51.798 14.0813 50.934 14.3813C50.082 14.6813 49.35 15.1133 48.738 15.6773C48.126 16.2293 47.652 16.9013 47.316 17.6933C46.98 18.4733 46.812 19.3493 46.812 20.3213C46.812 21.1613 46.944 21.9833 47.208 22.7873C47.484 23.5793 47.904 24.2873 48.468 24.9113C49.032 25.5233 49.752 26.0213 50.628 26.4053C51.504 26.7773 52.548 26.9633 53.76 26.9633C54.528 26.9633 55.212 26.8913 55.812 26.7473C56.424 26.6033 56.952 26.4293 57.396 26.2253C57.852 26.0093 58.23 25.7813 58.53 25.5413C58.83 25.3013 59.058 25.0913 59.214 24.9113L58.674 24.4253ZM67.3682 20.4833H74.9102V26.7473H76.5482V14.1473H74.9102V19.6553H67.3682V14.1473H65.7302V26.7473H67.3682V20.4833ZM84.865 14.1473V26.7473H93.001V25.7573H86.503V20.4833H92.083V19.6553H86.503V15.1373H93.001V14.1473H84.865ZM110.295 24.4253C109.071 25.5773 107.619 26.1533 105.939 26.1533C105.003 26.1533 104.175 25.9913 103.455 25.6673C102.735 25.3433 102.135 24.9113 101.655 24.3713C101.175 23.8313 100.809 23.2073 100.557 22.4993C100.317 21.7913 100.197 21.0533 100.197 20.2853C100.197 19.4693 100.323 18.7253 100.575 18.0533C100.839 17.3693 101.205 16.7813 101.673 16.2893C102.141 15.7973 102.693 15.4133 103.329 15.1373C103.977 14.8613 104.679 14.7233 105.435 14.7233C105.951 14.7233 106.419 14.7833 106.839 14.9033C107.271 15.0233 107.649 15.1793 107.973 15.3713C108.309 15.5633 108.579 15.7853 108.783 16.0373C108.999 16.2773 109.149 16.5233 109.233 16.7753H110.565C110.385 16.3673 110.151 15.9893 109.863 15.6413C109.587 15.2933 109.239 14.9933 108.819 14.7413C108.399 14.4893 107.907 14.2913 107.343 14.1473C106.779 14.0033 106.137 13.9313 105.417 13.9313C104.373 13.9313 103.419 14.0813 102.555 14.3813C101.703 14.6813 100.971 15.1133 100.359 15.6773C99.7471 16.2293 99.2731 16.9013 98.9371 17.6933C98.6011 18.4733 98.4331 19.3493 98.4331 20.3213C98.4331 21.1613 98.5651 21.9833 98.8291 22.7873C99.1051 23.5793 99.5251 24.2873 100.089 24.9113C100.653 25.5233 101.373 26.0213 102.249 26.4053C103.125 26.7773 104.169 26.9633 105.381 26.9633C106.149 26.9633 106.833 26.8913 107.433 26.7473C108.045 26.6033 108.573 26.4293 109.017 26.2253C109.473 26.0093 109.851 25.7813 110.151 25.5413C110.451 25.3013 110.679 25.0913 110.835 24.9113L110.295 24.4253ZM117.351 26.7473H118.989V22.3193L121.023 20.1413L125.811 26.7473H127.683L122.067 19.0253L126.639 14.1473H125.739L118.989 21.2393V14.1473H117.351V26.7473ZM133.117 20.4473C133.117 21.1193 133.243 21.8393 133.495 22.6073C133.759 23.3633 134.167 24.0653 134.719 24.7133C135.271 25.3613 135.973 25.9013 136.825 26.3333C137.677 26.7533 138.697 26.9633 139.885 26.9633C140.689 26.9633 141.415 26.8673 142.063 26.6753C142.723 26.4713 143.311 26.2013 143.827 25.8653C144.355 25.5293 144.811 25.1453 145.195 24.7133C145.579 24.2693 145.891 23.8073 146.131 23.3273C146.383 22.8353 146.569 22.3433 146.689 21.8513C146.821 21.3593 146.887 20.8913 146.887 20.4473C146.887 19.7753 146.749 19.0613 146.473 18.3053C146.197 17.5373 145.771 16.8293 145.195 16.1813C144.619 15.5333 143.887 14.9993 142.999 14.5793C142.123 14.1473 141.085 13.9313 139.885 13.9313C138.697 13.9313 137.677 14.1413 136.825 14.5613C135.973 14.9813 135.271 15.5153 134.719 16.1633C134.167 16.7993 133.759 17.5013 133.495 18.2693C133.243 19.0373 133.117 19.7633 133.117 20.4473ZM134.881 20.4473C134.881 19.6073 135.007 18.8393 135.259 18.1433C135.523 17.4353 135.877 16.8293 136.321 16.3253C136.777 15.8213 137.311 15.4313 137.923 15.1553C138.535 14.8673 139.201 14.7233 139.921 14.7233C140.629 14.7233 141.295 14.8673 141.919 15.1553C142.555 15.4313 143.107 15.8213 143.575 16.3253C144.055 16.8293 144.433 17.4353 144.709 18.1433C144.985 18.8393 145.123 19.6073 145.123 20.4473C145.123 21.2873 144.985 22.0613 144.709 22.7693C144.433 23.4653 144.055 24.0653 143.575 24.5693C143.107 25.0733 142.555 25.4693 141.919 25.7573C141.295 26.0333 140.629 26.1713 139.921 26.1713C139.201 26.1713 138.535 26.0333 137.923 25.7573C137.311 25.4693 136.777 25.0733 136.321 24.5693C135.877 24.0653 135.523 23.4653 135.259 22.7693C135.007 22.0613 134.881 21.2873 134.881 20.4473ZM153.231 14.1473V21.8873C153.231 22.3793 153.279 22.9253 153.375 23.5253C153.471 24.1133 153.699 24.6653 154.059 25.1813C154.419 25.6853 154.953 26.1113 155.661 26.4593C156.369 26.7953 157.335 26.9633 158.559 26.9633C159.327 26.9633 160.005 26.8433 160.593 26.6033C161.193 26.3633 161.691 26.0333 162.087 25.6133C162.495 25.1933 162.801 24.7073 163.005 24.1553C163.209 23.5913 163.311 22.9913 163.311 22.3553V14.1473H162.519V21.7613C162.519 22.0253 162.513 22.2953 162.501 22.5713C162.489 22.8353 162.453 23.1053 162.393 23.3813C162.333 23.6453 162.237 23.9093 162.105 24.1733C161.985 24.4373 161.805 24.7013 161.565 24.9653C161.133 25.4333 160.647 25.7513 160.107 25.9193C159.567 26.0873 159.003 26.1713 158.415 26.1713C157.911 26.1713 157.461 26.0933 157.065 25.9373C156.681 25.7813 156.315 25.5473 155.967 25.2353C155.691 24.9953 155.481 24.7553 155.337 24.5153C155.193 24.2753 155.085 24.0413 155.013 23.8133C154.941 23.5733 154.899 23.3333 154.887 23.0933C154.875 22.8533 154.869 22.6133 154.869 22.3733V14.1473H153.231ZM175.568 26.7473V15.1373H180.392V14.1473H169.106V15.1373H173.93V26.7473H175.568Z" fill="black"/>
<path d="M113.409 42.5776L117.959 38.028H175.811V37.8212H117.959L113.409 33.3233L108.912 37.8212H50.8525V38.028H108.912L113.409 42.5776ZM113.409 33.6335L117.752 37.9246L113.409 42.2674L109.067 37.9246L113.409 33.6335Z" fill="#555555"/>
</svg>
