<svg width="374" height="50" viewBox="0 0 374 50" fill="none" xmlns="http://www.w3.org/2000/svg">
<path d="M187.578 49.2543L192.127 44.7047H249.979V44.4979H192.127L187.578 40L183.08 44.4979H125.021V44.7047H183.08L187.578 49.2543ZM187.578 40.3102L191.92 44.6013L187.578 48.9441L183.235 44.6013L187.578 40.3102Z" fill="#555555"/>
<path d="M102.324 13.4V22.49C102.324 22.778 102.312 23.096 102.288 23.444C102.276 23.78 102.21 24.098 102.09 24.398C101.97 24.686 101.784 24.932 101.532 25.136C101.292 25.328 100.944 25.424 100.488 25.424C100.092 25.424 99.7616 25.352 99.4976 25.208C99.2456 25.064 99.0416 24.884 98.8856 24.668C98.7416 24.452 98.6336 24.224 98.5616 23.984C98.5016 23.732 98.4716 23.51 98.4716 23.318H96.9056C96.9296 24.242 97.2296 24.956 97.8056 25.46C98.3816 25.964 99.2456 26.216 100.398 26.216C101.226 26.216 101.88 26.096 102.36 25.856C102.84 25.604 103.194 25.292 103.422 24.92C103.662 24.536 103.812 24.122 103.872 23.678C103.932 23.234 103.962 22.82 103.962 22.436V13.4H102.324ZM111.57 13.4V21.14C111.57 21.632 111.618 22.178 111.714 22.778C111.81 23.366 112.038 23.918 112.398 24.434C112.758 24.938 113.292 25.364 114 25.712C114.708 26.048 115.674 26.216 116.898 26.216C117.666 26.216 118.344 26.096 118.932 25.856C119.532 25.616 120.03 25.286 120.426 24.866C120.834 24.446 121.14 23.96 121.344 23.408C121.548 22.844 121.65 22.244 121.65 21.608V13.4H120.858V21.014C120.858 21.278 120.852 21.548 120.84 21.824C120.828 22.088 120.792 22.358 120.732 22.634C120.672 22.898 120.576 23.162 120.444 23.426C120.324 23.69 120.144 23.954 119.904 24.218C119.472 24.686 118.986 25.004 118.446 25.172C117.906 25.34 117.342 25.424 116.754 25.424C116.25 25.424 115.8 25.346 115.404 25.19C115.02 25.034 114.654 24.8 114.306 24.488C114.03 24.248 113.82 24.008 113.676 23.768C113.532 23.528 113.424 23.294 113.352 23.066C113.28 22.826 113.238 22.586 113.226 22.346C113.214 22.106 113.208 21.866 113.208 21.626V13.4H111.57ZM127.751 22.814C127.775 23.33 127.907 23.798 128.147 24.218C128.399 24.638 128.735 24.998 129.155 25.298C129.587 25.586 130.091 25.814 130.667 25.982C131.243 26.138 131.873 26.216 132.557 26.216C133.253 26.216 133.877 26.132 134.429 25.964C134.993 25.796 135.473 25.556 135.869 25.244C136.265 24.932 136.571 24.554 136.787 24.11C137.003 23.666 137.111 23.174 137.111 22.634C137.111 21.89 136.925 21.284 136.553 20.816C136.181 20.336 135.713 19.94 135.149 19.628C134.597 19.304 133.991 19.034 133.331 18.818C132.683 18.602 132.077 18.374 131.513 18.134C130.961 17.894 130.499 17.618 130.127 17.306C129.755 16.994 129.569 16.58 129.569 16.064C129.569 15.776 129.629 15.506 129.749 15.254C129.881 15.002 130.067 14.786 130.307 14.606C130.559 14.414 130.865 14.264 131.225 14.156C131.585 14.036 131.999 13.976 132.467 13.976C133.247 13.976 133.907 14.144 134.447 14.48C134.999 14.804 135.323 15.32 135.419 16.028H136.643C136.571 15.584 136.409 15.188 136.157 14.84C135.905 14.48 135.587 14.18 135.203 13.94C134.819 13.688 134.381 13.502 133.889 13.382C133.409 13.25 132.905 13.184 132.377 13.184C131.825 13.184 131.297 13.256 130.793 13.4C130.301 13.544 129.863 13.754 129.479 14.03C129.107 14.306 128.807 14.654 128.579 15.074C128.363 15.494 128.255 15.974 128.255 16.514C128.255 17.222 128.435 17.792 128.795 18.224C129.155 18.656 129.605 19.016 130.145 19.304C130.697 19.592 131.291 19.838 131.927 20.042C132.563 20.246 133.151 20.48 133.691 20.744C134.243 20.996 134.699 21.308 135.059 21.68C135.419 22.052 135.599 22.55 135.599 23.174C135.599 23.954 135.311 24.524 134.735 24.884C134.171 25.244 133.415 25.424 132.467 25.424C131.711 25.424 131.105 25.328 130.649 25.136C130.193 24.932 129.845 24.692 129.605 24.416C129.365 24.14 129.203 23.858 129.119 23.57C129.035 23.27 128.987 23.018 128.975 22.814H127.751ZM149.157 26V14.39H153.981V13.4H142.695V14.39H147.519V26H149.157ZM170.794 13.4V26H172.432V19.736H178.012V18.908H172.432V14.39H178.93V13.4H170.794ZM184.362 19.7C184.362 20.372 184.488 21.092 184.74 21.86C185.004 22.616 185.412 23.318 185.964 23.966C186.516 24.614 187.218 25.154 188.07 25.586C188.922 26.006 189.942 26.216 191.13 26.216C191.934 26.216 192.66 26.12 193.308 25.928C193.968 25.724 194.556 25.454 195.072 25.118C195.6 24.782 196.056 24.398 196.44 23.966C196.824 23.522 197.136 23.06 197.376 22.58C197.628 22.088 197.814 21.596 197.934 21.104C198.066 20.612 198.132 20.144 198.132 19.7C198.132 19.028 197.994 18.314 197.718 17.558C197.442 16.79 197.016 16.082 196.44 15.434C195.864 14.786 195.132 14.252 194.244 13.832C193.368 13.4 192.33 13.184 191.13 13.184C189.942 13.184 188.922 13.394 188.07 13.814C187.218 14.234 186.516 14.768 185.964 15.416C185.412 16.052 185.004 16.754 184.74 17.522C184.488 18.29 184.362 19.016 184.362 19.7ZM186.126 19.7C186.126 18.86 186.252 18.092 186.504 17.396C186.768 16.688 187.122 16.082 187.566 15.578C188.022 15.074 188.556 14.684 189.168 14.408C189.78 14.12 190.446 13.976 191.166 13.976C191.874 13.976 192.54 14.12 193.164 14.408C193.8 14.684 194.352 15.074 194.82 15.578C195.3 16.082 195.678 16.688 195.954 17.396C196.23 18.092 196.368 18.86 196.368 19.7C196.368 20.54 196.23 21.314 195.954 22.022C195.678 22.718 195.3 23.318 194.82 23.822C194.352 24.326 193.8 24.722 193.164 25.01C192.54 25.286 191.874 25.424 191.166 25.424C190.446 25.424 189.78 25.286 189.168 25.01C188.556 24.722 188.022 24.326 187.566 23.822C187.122 23.318 186.768 22.718 186.504 22.022C186.252 21.314 186.126 20.54 186.126 19.7ZM205.196 13.4V26H206.834V20.438H207.626C207.962 20.438 208.238 20.468 208.454 20.528C208.682 20.588 208.886 20.69 209.066 20.834C209.246 20.978 209.414 21.164 209.57 21.392C209.726 21.62 209.912 21.902 210.128 22.238L211.55 24.344C211.73 24.62 211.904 24.872 212.072 25.1C212.252 25.328 212.444 25.526 212.648 25.694C212.852 25.85 213.08 25.976 213.332 26.072C213.596 26.168 213.908 26.216 214.268 26.216C214.532 26.216 214.748 26.204 214.916 26.18C215.084 26.156 215.252 26.096 215.42 26V25.334C215.36 25.346 215.3 25.358 215.24 25.37C215.18 25.37 215.12 25.37 215.06 25.37C214.808 25.37 214.586 25.334 214.394 25.262C214.202 25.19 214.022 25.088 213.854 24.956C213.686 24.812 213.524 24.644 213.368 24.452C213.212 24.248 213.05 24.02 212.882 23.768C212.378 23.036 211.988 22.454 211.712 22.022C211.436 21.578 211.214 21.236 211.046 20.996C210.89 20.756 210.758 20.582 210.65 20.474C210.554 20.366 210.434 20.276 210.29 20.204L210.11 20.114V20.042C210.686 20.006 211.178 19.88 211.586 19.664C212.006 19.448 212.348 19.178 212.612 18.854C212.876 18.53 213.068 18.182 213.188 17.81C213.308 17.426 213.368 17.054 213.368 16.694C213.368 16.37 213.302 16.016 213.17 15.632C213.05 15.248 212.834 14.894 212.522 14.57C212.222 14.234 211.808 13.958 211.28 13.742C210.752 13.514 210.086 13.4 209.282 13.4H205.196ZM206.834 14.192H208.652C209.108 14.192 209.516 14.258 209.876 14.39C210.248 14.522 210.566 14.708 210.83 14.948C211.094 15.176 211.292 15.452 211.424 15.776C211.568 16.1 211.64 16.454 211.64 16.838C211.64 17.162 211.574 17.492 211.442 17.828C211.322 18.152 211.136 18.452 210.884 18.728C210.632 18.992 210.32 19.208 209.948 19.376C209.588 19.544 209.168 19.628 208.688 19.628H206.834V14.192ZM230.789 13.4L235.145 21.23V26H236.783V21.068L241.211 13.4H240.239L236.387 20.042H236.315L232.643 13.4H230.789ZM246.645 19.7C246.645 20.372 246.771 21.092 247.023 21.86C247.287 22.616 247.695 23.318 248.247 23.966C248.799 24.614 249.501 25.154 250.353 25.586C251.205 26.006 252.225 26.216 253.413 26.216C254.217 26.216 254.943 26.12 255.591 25.928C256.251 25.724 256.839 25.454 257.355 25.118C257.883 24.782 258.339 24.398 258.723 23.966C259.107 23.522 259.419 23.06 259.659 22.58C259.911 22.088 260.097 21.596 260.217 21.104C260.349 20.612 260.415 20.144 260.415 19.7C260.415 19.028 260.277 18.314 260.001 17.558C259.725 16.79 259.299 16.082 258.723 15.434C258.147 14.786 257.415 14.252 256.527 13.832C255.651 13.4 254.613 13.184 253.413 13.184C252.225 13.184 251.205 13.394 250.353 13.814C249.501 14.234 248.799 14.768 248.247 15.416C247.695 16.052 247.287 16.754 247.023 17.522C246.771 18.29 246.645 19.016 246.645 19.7ZM248.409 19.7C248.409 18.86 248.535 18.092 248.787 17.396C249.051 16.688 249.405 16.082 249.849 15.578C250.305 15.074 250.839 14.684 251.451 14.408C252.063 14.12 252.729 13.976 253.449 13.976C254.157 13.976 254.823 14.12 255.447 14.408C256.083 14.684 256.635 15.074 257.103 15.578C257.583 16.082 257.961 16.688 258.237 17.396C258.513 18.092 258.651 18.86 258.651 19.7C258.651 20.54 258.513 21.314 258.237 22.022C257.961 22.718 257.583 23.318 257.103 23.822C256.635 24.326 256.083 24.722 255.447 25.01C254.823 25.286 254.157 25.424 253.449 25.424C252.729 25.424 252.063 25.286 251.451 25.01C250.839 24.722 250.305 24.326 249.849 23.822C249.405 23.318 249.051 22.718 248.787 22.022C248.535 21.314 248.409 20.54 248.409 19.7ZM266.759 13.4V21.14C266.759 21.632 266.807 22.178 266.903 22.778C266.999 23.366 267.227 23.918 267.587 24.434C267.947 24.938 268.481 25.364 269.189 25.712C269.897 26.048 270.863 26.216 272.087 26.216C272.855 26.216 273.533 26.096 274.121 25.856C274.721 25.616 275.219 25.286 275.615 24.866C276.023 24.446 276.329 23.96 276.533 23.408C276.737 22.844 276.839 22.244 276.839 21.608V13.4H276.047V21.014C276.047 21.278 276.041 21.548 276.029 21.824C276.017 22.088 275.981 22.358 275.921 22.634C275.861 22.898 275.765 23.162 275.633 23.426C275.513 23.69 275.333 23.954 275.093 24.218C274.661 24.686 274.175 25.004 273.635 25.172C273.095 25.34 272.531 25.424 271.943 25.424C271.439 25.424 270.989 25.346 270.593 25.19C270.209 25.034 269.843 24.8 269.495 24.488C269.219 24.248 269.009 24.008 268.865 23.768C268.721 23.528 268.613 23.294 268.541 23.066C268.469 22.826 268.427 22.586 268.415 22.346C268.403 22.106 268.397 21.866 268.397 21.626V13.4H266.759Z" fill="black"/>
</svg>
