<svg width="143" height="58" viewBox="0 0 143 58" fill="none" xmlns="http://www.w3.org/2000/svg">
<path d="M23.3497 39.2436C22.5841 39.5836 21.7617 39.8124 20.8985 39.9156C21.7801 39.3876 22.4561 38.5516 22.7745 37.5548C21.9505 38.0436 21.0369 38.3988 20.0641 38.5908C19.2857 37.7612 18.1769 37.2428 16.9497 37.2428C14.5929 37.2428 12.6825 39.154 12.6825 41.51C12.6825 41.8444 12.7209 42.1708 12.7929 42.482C9.24649 42.3044 6.10249 40.6052 3.99689 38.0228C3.63049 38.6532 3.42009 39.386 3.42009 40.1692C3.42009 41.6492 4.17289 42.9556 5.31769 43.7204C4.61849 43.698 3.96009 43.506 3.38489 43.1868C3.38489 43.2052 3.38489 43.222 3.38489 43.2404C3.38489 45.3084 4.85529 47.0332 6.80809 47.4244C6.45049 47.522 6.07289 47.574 5.68329 47.574C5.40889 47.574 5.14089 47.5468 4.88089 47.498C5.42409 49.1932 7.00009 50.4276 8.86729 50.462C7.40729 51.6068 5.56729 52.2892 3.56729 52.2892C3.22329 52.2892 2.88329 52.2692 2.54889 52.2292C4.43769 53.4396 6.68009 54.146 9.09049 54.146C16.9401 54.146 21.2313 47.6436 21.2313 42.0044C21.2313 41.8196 21.2273 41.6356 21.2193 41.4524C22.0537 40.85 22.7777 40.0988 23.3497 39.2436Z" fill="#555555"/>
<path d="M67.9482 36.094C64.861 36.094 62.3497 38.6075 62.3497 41.6955V49.6955C62.3497 52.7827 64.8633 55.294 67.9513 55.294H75.9513C79.0385 55.294 81.5497 52.7804 81.5497 49.6924V41.6924C81.5497 38.6052 79.0362 36.094 75.9482 36.094H67.9482ZM77.5497 39.294C77.9913 39.294 78.3497 39.6524 78.3497 40.094C78.3497 40.5356 77.9913 40.894 77.5497 40.894C77.1081 40.894 76.7497 40.5356 76.7497 40.094C76.7497 39.6524 77.1081 39.294 77.5497 39.294ZM71.9497 40.894C74.5969 40.894 76.7497 43.0468 76.7497 45.694C76.7497 48.3412 74.5969 50.494 71.9497 50.494C69.3025 50.494 67.1497 48.3412 67.1497 45.694C67.1497 43.0468 69.3025 40.894 71.9497 40.894ZM71.9497 42.494C71.101 42.494 70.2871 42.8311 69.687 43.4312C69.0869 44.0313 68.7497 44.8453 68.7497 45.694C68.7497 46.5427 69.0869 47.3566 69.687 47.9567C70.2871 48.5568 71.101 48.894 71.9497 48.894C72.7984 48.894 73.6124 48.5568 74.2125 47.9567C74.8126 47.3566 75.1497 46.5427 75.1497 45.694C75.1497 44.8453 74.8126 44.0313 74.2125 43.4312C73.6124 42.8311 72.7984 42.494 71.9497 42.494Z" fill="#555555"/>
<path d="M130.95 36.894C127.601 36.894 123.254 37.733 123.254 37.733L123.243 37.7455C121.718 37.9895 120.55 39.3001 120.55 40.894V45.694V45.6955V50.494V50.4955C120.551 51.2568 120.824 51.9925 121.319 52.5707C121.814 53.1489 122.499 53.5317 123.251 53.6502L123.254 53.6549C123.254 53.6549 127.601 54.4955 130.95 54.4955C134.298 54.4955 138.645 53.6549 138.645 53.6549L138.647 53.6534C139.399 53.535 140.085 53.152 140.581 52.5731C141.076 51.9942 141.349 51.2575 141.35 50.4955V50.494V45.6955V45.694V40.894C141.349 40.1325 141.076 39.3963 140.581 38.8178C140.086 38.2393 139.4 37.8563 138.648 37.7377L138.645 37.733C138.645 37.733 134.298 36.894 130.95 36.894ZM128.55 42.0127L134.95 45.694L128.55 49.3752V42.0127Z" fill="#555555"/>
<path d="M72.5775 9.75649L77.1271 5.20689H134.979V5.00009H77.1271L72.5775 0.502197L68.0796 5.00009H10.0206V5.20689H68.0796L72.5775 9.75649ZM72.5775 0.812397L76.9203 5.10349L72.5775 9.44629L68.2347 5.10349L72.5775 0.812397Z" fill="#555555"/>
</svg>
