<svg width="364" height="340" viewBox="0 0 364 340" fill="none" xmlns="http://www.w3.org/2000/svg">
<rect x="-11" width="375" height="340" fill="white"/>
<path d="M176.578 81.038L181.127 76.4884H238.979V76.2816H181.127L176.578 71.7837L172.08 76.2816H114.021V76.4884H172.08L176.578 81.038ZM176.578 72.0939L180.92 76.385L176.578 80.7278L172.235 76.385L176.578 72.0939Z" fill="#555555"/>
<path d="M176.578 215.784L181.127 211.234H238.979V211.027H181.127L176.578 206.529L172.08 211.027H114.021V211.234H172.08L176.578 215.784ZM176.578 206.839L180.92 211.131L176.578 215.473L172.235 211.131L176.578 206.839Z" fill="#555555"/>
<path d="M117.9 29.3333C117.134 29.6733 116.312 29.9021 115.449 30.0053C116.33 29.4773 117.006 28.6413 117.325 27.6445C116.501 28.1333 115.587 28.4885 114.614 28.6805C113.836 27.8509 112.727 27.3325 111.5 27.3325C109.143 27.3325 107.233 29.2437 107.233 31.5997C107.233 31.9341 107.271 32.2605 107.343 32.5717C103.797 32.3941 100.653 30.6949 98.5472 28.1125C98.1808 28.7429 97.9704 29.4757 97.9704 30.2589C97.9704 31.7389 98.7232 33.0453 99.868 33.8101C99.1688 33.7877 98.5104 33.5957 97.9352 33.2765C97.9352 33.2949 97.9352 33.3117 97.9352 33.3301C97.9352 35.3981 99.4056 37.1229 101.358 37.5141C101.001 37.6117 100.623 37.6637 100.234 37.6637C99.9592 37.6637 99.6912 37.6365 99.4312 37.5877C99.9744 39.2829 101.55 40.5173 103.418 40.5517C101.958 41.6965 100.118 42.3789 98.1176 42.3789C97.7736 42.3789 97.4336 42.3589 97.0992 42.3189C98.988 43.5293 101.23 44.2357 103.641 44.2357C111.49 44.2357 115.782 37.7333 115.782 32.0941C115.782 31.9093 115.778 31.7253 115.77 31.5421C116.604 30.9397 117.328 30.1885 117.9 29.3333Z" fill="#333333"/>
<path d="M172.498 26.1837C169.411 26.1837 166.9 28.6973 166.9 31.7853V39.7853C166.9 42.8725 169.414 45.3837 172.502 45.3837H180.502C183.589 45.3837 186.1 42.8702 186.1 39.7822V31.7822C186.1 28.695 183.586 26.1837 180.498 26.1837H172.498ZM182.1 29.3837C182.542 29.3837 182.9 29.7421 182.9 30.1837C182.9 30.6253 182.542 30.9837 182.1 30.9837C181.658 30.9837 181.3 30.6253 181.3 30.1837C181.3 29.7421 181.658 29.3837 182.1 29.3837ZM176.5 30.9837C179.147 30.9837 181.3 33.1365 181.3 35.7837C181.3 38.4309 179.147 40.5837 176.5 40.5837C173.853 40.5837 171.7 38.4309 171.7 35.7837C171.7 33.1365 173.853 30.9837 176.5 30.9837ZM176.5 32.5837C175.651 32.5837 174.837 32.9209 174.237 33.521C173.637 34.1211 173.3 34.935 173.3 35.7837C173.3 36.6324 173.637 37.4463 174.237 38.0465C174.837 38.6466 175.651 38.9837 176.5 38.9837C177.349 38.9837 178.163 38.6466 178.763 38.0465C179.363 37.4463 179.7 36.6324 179.7 35.7837C179.7 34.935 179.363 34.1211 178.763 33.521C178.163 32.9209 177.349 32.5837 176.5 32.5837Z" fill="#333333"/>
<path d="M245.5 26.9836C242.151 26.9836 237.805 27.8227 237.805 27.8227L237.794 27.8352C236.269 28.0791 235.1 29.3897 235.1 30.9836V35.7836V35.7852V40.5836V40.5852C235.102 41.3464 235.374 42.0822 235.87 42.6604C236.365 43.2386 237.05 43.6213 237.802 43.7399L237.805 43.7446C237.805 43.7446 242.151 44.5852 245.5 44.5852C248.849 44.5852 253.195 43.7446 253.195 43.7446L253.197 43.743C253.95 43.6247 254.636 43.2417 255.131 42.6628C255.627 42.0839 255.899 41.3472 255.9 40.5852V40.5836V35.7852V35.7836V30.9836C255.899 30.2221 255.626 29.486 255.131 28.9075C254.636 28.329 253.951 27.946 253.199 27.8274L253.195 27.8227C253.195 27.8227 248.849 26.9836 245.5 26.9836ZM243.1 32.1024L249.5 35.7836L243.1 39.4649V32.1024Z" fill="#333333"/>
<path d="M75.7903 113.589H74.8783C74.8783 113.45 74.8409 113.301 74.7663 113.141C74.6916 112.981 74.5743 112.837 74.4143 112.709C74.2543 112.57 74.0569 112.458 73.8223 112.373C73.5876 112.277 73.3103 112.229 72.9903 112.229C72.6703 112.229 72.4036 112.277 72.1903 112.373C71.9769 112.458 71.8063 112.57 71.6783 112.709C71.5503 112.837 71.4596 112.981 71.4062 113.141C71.3529 113.29 71.3263 113.434 71.3263 113.573C71.3263 113.904 71.4436 114.16 71.6783 114.341C71.9236 114.522 72.2276 114.677 72.5903 114.805C72.9529 114.933 73.3423 115.056 73.7583 115.173C74.1849 115.29 74.5796 115.445 74.9423 115.637C75.3049 115.818 75.6036 116.064 75.8383 116.373C76.0836 116.682 76.2063 117.093 76.2063 117.605C76.2063 118.309 75.9556 118.88 75.4543 119.317C74.9636 119.744 74.2276 119.957 73.2463 119.957C72.7023 119.957 72.2223 119.893 71.8063 119.765C71.4009 119.626 71.0543 119.445 70.7663 119.221C70.4889 118.997 70.2809 118.746 70.1423 118.469C70.0036 118.181 69.9342 117.888 69.9342 117.589H70.9743C70.9743 117.717 71.0116 117.877 71.0863 118.069C71.1716 118.261 71.3049 118.453 71.4863 118.645C71.6783 118.826 71.9183 118.986 72.2063 119.125C72.5049 119.253 72.8676 119.317 73.2943 119.317C73.6356 119.317 73.9183 119.274 74.1423 119.189C74.3663 119.093 74.5423 118.981 74.6703 118.853C74.7983 118.714 74.8836 118.565 74.9263 118.405C74.9796 118.245 75.0063 118.09 75.0063 117.941C75.0063 117.589 74.8889 117.312 74.6543 117.109C74.4196 116.906 74.1263 116.741 73.7743 116.613C73.4223 116.474 73.0383 116.352 72.6223 116.245C72.2169 116.128 71.8383 115.978 71.4863 115.797C71.1343 115.616 70.8409 115.376 70.6063 115.077C70.3716 114.778 70.2543 114.373 70.2543 113.861C70.2543 113.488 70.3236 113.162 70.4622 112.885C70.6009 112.597 70.7876 112.357 71.0223 112.165C71.2676 111.973 71.5503 111.829 71.8703 111.733C72.2009 111.637 72.5529 111.589 72.9263 111.589C73.3209 111.589 73.6889 111.642 74.0303 111.749C74.3823 111.845 74.6863 111.984 74.9423 112.165C75.2089 112.336 75.4169 112.544 75.5663 112.789C75.7156 113.034 75.7903 113.301 75.7903 113.589ZM78.3738 111.765H79.7338V117.045C79.7338 117.152 79.7444 117.322 79.7658 117.557C79.7871 117.781 79.8564 118.01 79.9738 118.245C80.1018 118.48 80.2884 118.688 80.5338 118.869C80.7898 119.04 81.1418 119.125 81.5898 119.125C81.8671 119.125 82.1338 119.077 82.3898 118.981C82.6458 118.885 82.8698 118.741 83.0618 118.549C83.2538 118.346 83.4084 118.096 83.5258 117.797C83.6431 117.498 83.7018 117.141 83.7018 116.725V111.765H85.0618V119.765H83.7018V118.757H83.6378L83.3818 119.013C83.0084 119.386 82.6351 119.637 82.2618 119.765C81.8991 119.904 81.5631 119.968 81.2538 119.957C80.5498 119.957 80.0004 119.84 79.6058 119.605C79.2218 119.36 78.9391 119.077 78.7578 118.757C78.5764 118.426 78.4644 118.096 78.4218 117.765C78.3898 117.424 78.3738 117.157 78.3738 116.965V111.765ZM87.6706 123.765V111.765H89.0306V113.061H89.0946C89.4893 112.08 90.3213 111.589 91.5906 111.589C92.124 111.589 92.6146 111.69 93.0626 111.893C93.5106 112.085 93.8946 112.368 94.2146 112.741C94.5453 113.104 94.8013 113.541 94.9826 114.053C95.164 114.565 95.2546 115.141 95.2546 115.781C95.2546 116.41 95.164 116.986 94.9826 117.509C94.8013 118.021 94.5453 118.458 94.2146 118.821C93.8946 119.184 93.5106 119.466 93.0626 119.669C92.6146 119.861 92.124 119.957 91.5906 119.957C91.3346 119.957 91.0786 119.93 90.8226 119.877C90.5773 119.824 90.3426 119.738 90.1186 119.621C89.8946 119.504 89.692 119.349 89.5106 119.157C89.34 118.965 89.2013 118.73 89.0946 118.453H89.0306V123.765H87.6706ZM89.0306 114.965V116.357C89.0306 116.794 89.0893 117.184 89.2066 117.525C89.3346 117.866 89.5 118.16 89.7026 118.405C89.9053 118.64 90.14 118.821 90.4066 118.949C90.6733 119.066 90.956 119.125 91.2546 119.125C91.5853 119.125 91.9 119.066 92.1986 118.949C92.4973 118.821 92.7586 118.624 92.9826 118.357C93.2173 118.08 93.3986 117.728 93.5266 117.301C93.6653 116.874 93.7346 116.357 93.7346 115.749C93.7346 115.152 93.6653 114.64 93.5266 114.213C93.3986 113.786 93.2226 113.44 92.9986 113.173C92.7746 112.906 92.508 112.714 92.1986 112.597C91.9 112.469 91.5853 112.405 91.2546 112.405C90.9453 112.405 90.652 112.474 90.3746 112.613C90.108 112.741 89.8733 112.922 89.6706 113.157C89.468 113.381 89.308 113.653 89.1906 113.973C89.084 114.282 89.0306 114.613 89.0306 114.965ZM97.3269 123.765V111.765H98.6869V113.061H98.7509C99.1455 112.08 99.9775 111.589 101.247 111.589C101.78 111.589 102.271 111.69 102.719 111.893C103.167 112.085 103.551 112.368 103.871 112.741C104.202 113.104 104.458 113.541 104.639 114.053C104.82 114.565 104.911 115.141 104.911 115.781C104.911 116.41 104.82 116.986 104.639 117.509C104.458 118.021 104.202 118.458 103.871 118.821C103.551 119.184 103.167 119.466 102.719 119.669C102.271 119.861 101.78 119.957 101.247 119.957C100.991 119.957 100.735 119.93 100.479 119.877C100.234 119.824 99.9989 119.738 99.7749 119.621C99.5509 119.504 99.3482 119.349 99.1669 119.157C98.9962 118.965 98.8575 118.73 98.7509 118.453H98.6869V123.765H97.3269ZM98.6869 114.965V116.357C98.6869 116.794 98.7455 117.184 98.8629 117.525C98.9909 117.866 99.1562 118.16 99.3589 118.405C99.5615 118.64 99.7962 118.821 100.063 118.949C100.33 119.066 100.612 119.125 100.911 119.125C101.242 119.125 101.556 119.066 101.855 118.949C102.154 118.821 102.415 118.624 102.639 118.357C102.874 118.08 103.055 117.728 103.183 117.301C103.322 116.874 103.391 116.357 103.391 115.749C103.391 115.152 103.322 114.64 103.183 114.213C103.055 113.786 102.879 113.44 102.655 113.173C102.431 112.906 102.164 112.714 101.855 112.597C101.556 112.469 101.242 112.405 100.911 112.405C100.602 112.405 100.308 112.474 100.031 112.613C99.7642 112.741 99.5295 112.922 99.3269 113.157C99.1242 113.381 98.9642 113.653 98.8469 113.973C98.7402 114.282 98.6869 114.613 98.6869 114.965ZM114.791 115.781C114.791 116.336 114.695 116.869 114.503 117.381C114.311 117.882 114.034 118.325 113.671 118.709C113.319 119.093 112.887 119.397 112.375 119.621C111.874 119.845 111.308 119.957 110.679 119.957C110.039 119.957 109.458 119.845 108.935 119.621C108.423 119.386 107.986 119.077 107.623 118.693C107.271 118.309 106.994 117.866 106.791 117.365C106.599 116.853 106.503 116.325 106.503 115.781C106.503 115.226 106.599 114.698 106.791 114.197C106.994 113.685 107.271 113.237 107.623 112.853C107.986 112.469 108.423 112.165 108.935 111.941C109.458 111.706 110.039 111.589 110.679 111.589C111.308 111.589 111.874 111.706 112.375 111.941C112.887 112.165 113.319 112.469 113.671 112.853C114.034 113.237 114.311 113.685 114.503 114.197C114.695 114.698 114.791 115.226 114.791 115.781ZM113.271 115.781C113.271 115.034 113.191 114.432 113.031 113.973C112.871 113.504 112.663 113.141 112.407 112.885C112.151 112.629 111.868 112.458 111.559 112.373C111.25 112.277 110.951 112.229 110.663 112.229C110.375 112.229 110.076 112.277 109.767 112.373C109.458 112.458 109.17 112.629 108.903 112.885C108.647 113.141 108.434 113.504 108.263 113.973C108.103 114.432 108.023 115.034 108.023 115.781C108.023 116.517 108.103 117.12 108.263 117.589C108.434 118.048 108.647 118.405 108.903 118.661C109.17 118.917 109.458 119.093 109.767 119.189C110.076 119.274 110.375 119.317 110.663 119.317C110.951 119.317 111.25 119.274 111.559 119.189C111.868 119.093 112.151 118.917 112.407 118.661C112.663 118.405 112.871 118.048 113.031 117.589C113.191 117.12 113.271 116.517 113.271 115.781ZM116.874 111.765H118.234V113.045H118.33C118.522 112.565 118.767 112.202 119.066 111.957C119.364 111.712 119.738 111.589 120.186 111.589C120.239 111.589 120.319 111.6 120.426 111.621C120.543 111.632 120.666 111.664 120.794 111.717C120.932 111.76 121.066 111.824 121.194 111.909C121.332 111.994 121.45 112.101 121.546 112.229L121.002 113.221C120.906 113.082 120.751 112.933 120.538 112.773C120.335 112.613 120.111 112.533 119.866 112.533C119.684 112.533 119.498 112.576 119.306 112.661C119.114 112.746 118.938 112.885 118.778 113.077C118.618 113.269 118.484 113.52 118.378 113.829C118.282 114.128 118.234 114.496 118.234 114.933V119.765H116.874V111.765ZM122.183 112.405V111.765H123.575V109.301H124.935V111.765H126.871V112.405H124.935V117.717C124.935 117.845 124.94 117.994 124.951 118.165C124.962 118.325 124.994 118.48 125.047 118.629C125.1 118.768 125.18 118.885 125.287 118.981C125.404 119.077 125.564 119.125 125.767 119.125C126.023 119.125 126.236 119.029 126.407 118.837C126.578 118.645 126.716 118.437 126.823 118.213L127.575 118.981C127.052 119.504 126.46 119.765 125.799 119.765C125.522 119.765 125.25 119.717 124.983 119.621C124.716 119.525 124.476 119.381 124.263 119.189C124.06 118.986 123.895 118.73 123.767 118.421C123.639 118.112 123.575 117.749 123.575 117.333V112.405H122.183ZM140.327 111.189L138.887 116.005C138.77 116.389 138.684 116.693 138.631 116.917C138.588 117.13 138.567 117.296 138.567 117.413C138.567 117.637 138.594 117.818 138.647 117.957C138.711 118.096 138.786 118.202 138.871 118.277C138.956 118.352 139.042 118.405 139.127 118.437C139.223 118.458 139.303 118.469 139.367 118.469C139.708 118.469 140.066 118.368 140.439 118.165C140.823 117.962 141.175 117.674 141.495 117.301C141.815 116.917 142.082 116.464 142.295 115.941C142.508 115.418 142.615 114.837 142.615 114.197C142.615 113.322 142.46 112.512 142.151 111.765C141.852 111.008 141.42 110.352 140.855 109.797C140.3 109.242 139.623 108.81 138.823 108.501C138.023 108.181 137.132 108.021 136.151 108.021C135.714 108.021 135.276 108.058 134.839 108.133C134.412 108.208 133.996 108.325 133.591 108.485C133.047 108.698 132.514 109.002 131.991 109.397C131.479 109.792 131.015 110.266 130.599 110.821C130.194 111.365 129.863 111.994 129.607 112.709C129.362 113.413 129.239 114.181 129.239 115.013C129.239 115.877 129.394 116.73 129.703 117.573C130.023 118.416 130.471 119.168 131.047 119.829C131.634 120.501 132.343 121.04 133.175 121.445C134.018 121.861 134.962 122.069 136.007 122.069C136.647 122.069 137.218 122.01 137.719 121.893C138.22 121.776 138.658 121.632 139.031 121.461C139.415 121.301 139.73 121.13 139.975 120.949C140.22 120.778 140.402 120.64 140.519 120.533L140.887 120.997C140.386 121.37 139.911 121.664 139.463 121.877C139.015 122.101 138.588 122.272 138.183 122.389C137.778 122.506 137.394 122.581 137.031 122.613C136.679 122.645 136.354 122.661 136.055 122.661C134.903 122.661 133.868 122.437 132.951 121.989C132.044 121.541 131.271 120.949 130.631 120.213C130.002 119.488 129.516 118.672 129.175 117.765C128.834 116.848 128.663 115.925 128.663 114.997C128.663 114.25 128.77 113.514 128.983 112.789C129.196 112.053 129.506 111.376 129.911 110.757C130.327 110.128 130.823 109.568 131.399 109.077C131.986 108.586 132.647 108.197 133.383 107.909C133.863 107.728 134.359 107.605 134.871 107.541C135.394 107.466 135.916 107.429 136.439 107.429C137.271 107.429 138.034 107.552 138.727 107.797C139.42 108.032 140.034 108.346 140.567 108.741C141.1 109.136 141.554 109.578 141.927 110.069C142.3 110.56 142.583 111.05 142.775 111.541C142.935 111.968 143.047 112.405 143.111 112.853C143.175 113.301 143.207 113.749 143.207 114.197C143.207 114.869 143.106 115.504 142.903 116.101C142.7 116.688 142.418 117.205 142.055 117.653C141.692 118.09 141.266 118.437 140.775 118.693C140.295 118.938 139.772 119.061 139.207 119.061C139.079 119.061 138.93 119.05 138.759 119.029C138.599 119.008 138.428 118.96 138.247 118.885C138.066 118.81 137.884 118.704 137.703 118.565C137.532 118.426 137.372 118.24 137.223 118.005C136.828 118.314 136.46 118.544 136.119 118.693C135.788 118.832 135.436 118.901 135.063 118.901C134.7 118.901 134.343 118.842 133.991 118.725C133.65 118.608 133.34 118.421 133.063 118.165C132.796 117.909 132.578 117.584 132.407 117.189C132.247 116.784 132.167 116.298 132.167 115.733C132.167 115.104 132.279 114.512 132.503 113.957C132.738 113.392 133.058 112.896 133.463 112.469C133.868 112.042 134.343 111.706 134.887 111.461C135.431 111.216 136.018 111.093 136.647 111.093C136.754 111.093 136.882 111.104 137.031 111.125C137.191 111.146 137.356 111.194 137.527 111.269C137.708 111.333 137.89 111.44 138.071 111.589C138.263 111.728 138.444 111.925 138.615 112.181L138.951 111.189H140.327ZM137.095 117.253L138.231 113.237C138.146 112.757 137.954 112.373 137.655 112.085C137.356 111.786 137.004 111.637 136.599 111.637C136.258 111.637 135.916 111.76 135.575 112.005C135.244 112.24 134.946 112.57 134.679 112.997C134.412 113.413 134.194 113.909 134.023 114.485C133.852 115.061 133.767 115.68 133.767 116.341C133.767 116.917 133.884 117.386 134.119 117.749C134.354 118.112 134.716 118.293 135.207 118.293C135.431 118.293 135.639 118.261 135.831 118.197C136.023 118.133 136.199 118.053 136.359 117.957C136.519 117.85 136.658 117.738 136.775 117.621C136.903 117.493 137.01 117.37 137.095 117.253ZM148.396 111.589C149.175 111.589 149.777 111.701 150.204 111.925C150.631 112.138 150.94 112.421 151.132 112.773C151.335 113.125 151.452 113.53 151.484 113.989C151.516 114.448 151.532 114.917 151.532 115.397V119.765H150.236V118.981C149.927 119.28 149.532 119.52 149.052 119.701C148.572 119.872 148.092 119.957 147.612 119.957C147.153 119.957 146.748 119.877 146.396 119.717C146.044 119.557 145.751 119.349 145.516 119.093C145.281 118.837 145.105 118.549 144.988 118.229C144.871 117.909 144.812 117.584 144.812 117.253C144.812 116.912 144.876 116.57 145.004 116.229C145.132 115.888 145.324 115.584 145.58 115.317C145.836 115.04 146.151 114.816 146.524 114.645C146.897 114.474 147.324 114.389 147.804 114.389C148.284 114.389 148.737 114.485 149.164 114.677C149.601 114.858 149.959 115.12 150.236 115.461V114.773C150.236 113.898 150.103 113.248 149.836 112.821C149.58 112.394 149.105 112.181 148.412 112.181C148.113 112.181 147.852 112.218 147.628 112.293C147.404 112.368 147.201 112.474 147.02 112.613C146.849 112.741 146.689 112.906 146.54 113.109C146.391 113.301 146.241 113.52 146.092 113.765L145.26 112.933C145.409 112.773 145.564 112.613 145.724 112.453C145.895 112.293 146.097 112.149 146.332 112.021C146.577 111.893 146.865 111.792 147.196 111.717C147.527 111.632 147.927 111.589 148.396 111.589ZM150.236 116.597C150.183 116.469 150.103 116.32 149.996 116.149C149.9 115.978 149.772 115.813 149.612 115.653C149.452 115.493 149.26 115.36 149.036 115.253C148.812 115.136 148.545 115.077 148.236 115.077C147.927 115.077 147.644 115.141 147.388 115.269C147.132 115.386 146.913 115.546 146.732 115.749C146.561 115.941 146.428 116.17 146.332 116.437C146.236 116.704 146.188 116.981 146.188 117.269C146.188 117.61 146.247 117.909 146.364 118.165C146.492 118.41 146.652 118.624 146.844 118.805C147.036 118.976 147.249 119.104 147.484 119.189C147.719 119.274 147.943 119.317 148.156 119.317C148.359 119.317 148.561 119.28 148.764 119.205C148.977 119.13 149.175 119.029 149.356 118.901C149.548 118.762 149.719 118.602 149.868 118.421C150.017 118.24 150.14 118.042 150.236 117.829V116.597ZM154.093 108.565H155.453V113.077H155.517C155.623 112.8 155.762 112.57 155.933 112.389C156.114 112.197 156.317 112.042 156.541 111.925C156.765 111.808 156.999 111.722 157.245 111.669C157.501 111.616 157.757 111.589 158.013 111.589C158.546 111.589 159.037 111.69 159.485 111.893C159.933 112.085 160.317 112.362 160.637 112.725C160.967 113.088 161.223 113.525 161.405 114.037C161.586 114.549 161.677 115.12 161.677 115.749C161.677 116.389 161.586 116.97 161.405 117.493C161.223 118.005 160.967 118.448 160.637 118.821C160.317 119.184 159.933 119.466 159.485 119.669C159.037 119.861 158.546 119.957 158.013 119.957C156.743 119.957 155.911 119.461 155.517 118.469H155.453V119.765H154.093V108.565ZM155.453 116.565C155.453 116.917 155.506 117.253 155.613 117.573C155.73 117.882 155.89 118.154 156.093 118.389C156.295 118.613 156.53 118.794 156.797 118.933C157.074 119.061 157.367 119.125 157.677 119.125C158.007 119.125 158.322 119.066 158.621 118.949C158.93 118.821 159.197 118.624 159.421 118.357C159.645 118.09 159.821 117.744 159.949 117.317C160.087 116.89 160.157 116.378 160.157 115.781C160.157 115.173 160.087 114.656 159.949 114.229C159.821 113.802 159.639 113.456 159.405 113.189C159.181 112.912 158.919 112.714 158.621 112.597C158.322 112.469 158.007 112.405 157.677 112.405C157.378 112.405 157.095 112.469 156.829 112.597C156.562 112.714 156.327 112.896 156.125 113.141C155.922 113.376 155.757 113.664 155.629 114.005C155.511 114.346 155.453 114.736 155.453 115.173V116.565ZM170.853 108.565V119.765H169.493V118.469H169.429C169.023 119.461 168.191 119.957 166.933 119.957C166.399 119.957 165.909 119.861 165.461 119.669C165.013 119.466 164.623 119.184 164.293 118.821C163.973 118.448 163.722 118.005 163.541 117.493C163.359 116.97 163.269 116.389 163.269 115.749C163.269 115.12 163.359 114.549 163.541 114.037C163.722 113.525 163.973 113.088 164.293 112.725C164.623 112.362 165.013 112.085 165.461 111.893C165.909 111.69 166.399 111.589 166.933 111.589C167.189 111.589 167.439 111.616 167.685 111.669C167.941 111.722 168.181 111.808 168.405 111.925C168.629 112.042 168.826 112.197 168.997 112.389C169.178 112.57 169.322 112.8 169.429 113.077H169.493V108.565H170.853ZM169.493 116.565V115.173C169.493 114.736 169.429 114.346 169.301 114.005C169.183 113.664 169.023 113.376 168.821 113.141C168.618 112.896 168.383 112.714 168.117 112.597C167.85 112.469 167.567 112.405 167.269 112.405C166.938 112.405 166.623 112.469 166.325 112.597C166.026 112.714 165.759 112.912 165.525 113.189C165.301 113.456 165.119 113.802 164.981 114.229C164.853 114.656 164.789 115.173 164.789 115.781C164.789 116.378 164.853 116.89 164.981 117.317C165.119 117.744 165.301 118.09 165.525 118.357C165.749 118.624 166.01 118.821 166.309 118.949C166.607 119.066 166.927 119.125 167.269 119.125C167.578 119.125 167.866 119.061 168.133 118.933C168.41 118.794 168.645 118.613 168.837 118.389C169.039 118.154 169.199 117.882 169.317 117.573C169.434 117.253 169.493 116.917 169.493 116.565ZM173.405 111.765H174.765V117.045C174.765 117.152 174.776 117.322 174.797 117.557C174.818 117.781 174.888 118.01 175.005 118.245C175.133 118.48 175.32 118.688 175.565 118.869C175.821 119.04 176.173 119.125 176.621 119.125C176.898 119.125 177.165 119.077 177.421 118.981C177.677 118.885 177.901 118.741 178.093 118.549C178.285 118.346 178.44 118.096 178.557 117.797C178.674 117.498 178.733 117.141 178.733 116.725V111.765H180.093V119.765H178.733V118.757H178.669L178.413 119.013C178.04 119.386 177.666 119.637 177.293 119.765C176.93 119.904 176.594 119.968 176.285 119.957C175.581 119.957 175.032 119.84 174.637 119.605C174.253 119.36 173.97 119.077 173.789 118.757C173.608 118.426 173.496 118.096 173.453 117.765C173.421 117.424 173.405 117.157 173.405 116.965V111.765ZM184.382 108.565V119.765H183.022V108.565H184.382ZM187.264 111.765H188.624V113.045H188.72C188.912 112.565 189.158 112.202 189.456 111.957C189.755 111.712 190.128 111.589 190.576 111.589C190.63 111.589 190.71 111.6 190.816 111.621C190.934 111.632 191.056 111.664 191.184 111.717C191.323 111.76 191.456 111.824 191.584 111.909C191.723 111.994 191.84 112.101 191.936 112.229L191.392 113.221C191.296 113.082 191.142 112.933 190.928 112.773C190.726 112.613 190.502 112.533 190.256 112.533C190.075 112.533 189.888 112.576 189.696 112.661C189.504 112.746 189.328 112.885 189.168 113.077C189.008 113.269 188.875 113.52 188.768 113.829C188.672 114.128 188.624 114.496 188.624 114.933V119.765H187.264V111.765ZM196.318 111.589C197.096 111.589 197.699 111.701 198.126 111.925C198.552 112.138 198.862 112.421 199.054 112.773C199.256 113.125 199.374 113.53 199.406 113.989C199.438 114.448 199.454 114.917 199.454 115.397V119.765H198.158V118.981C197.848 119.28 197.454 119.52 196.974 119.701C196.494 119.872 196.014 119.957 195.534 119.957C195.075 119.957 194.67 119.877 194.318 119.717C193.966 119.557 193.672 119.349 193.438 119.093C193.203 118.837 193.027 118.549 192.91 118.229C192.792 117.909 192.734 117.584 192.734 117.253C192.734 116.912 192.798 116.57 192.926 116.229C193.054 115.888 193.246 115.584 193.502 115.317C193.758 115.04 194.072 114.816 194.446 114.645C194.819 114.474 195.246 114.389 195.726 114.389C196.206 114.389 196.659 114.485 197.086 114.677C197.523 114.858 197.88 115.12 198.158 115.461V114.773C198.158 113.898 198.024 113.248 197.758 112.821C197.502 112.394 197.027 112.181 196.334 112.181C196.035 112.181 195.774 112.218 195.55 112.293C195.326 112.368 195.123 112.474 194.942 112.613C194.771 112.741 194.611 112.906 194.462 113.109C194.312 113.301 194.163 113.52 194.014 113.765L193.182 112.933C193.331 112.773 193.486 112.613 193.646 112.453C193.816 112.293 194.019 112.149 194.254 112.021C194.499 111.893 194.787 111.792 195.118 111.717C195.448 111.632 195.848 111.589 196.318 111.589ZM198.158 116.597C198.104 116.469 198.024 116.32 197.918 116.149C197.822 115.978 197.694 115.813 197.534 115.653C197.374 115.493 197.182 115.36 196.958 115.253C196.734 115.136 196.467 115.077 196.158 115.077C195.848 115.077 195.566 115.141 195.31 115.269C195.054 115.386 194.835 115.546 194.654 115.749C194.483 115.941 194.35 116.17 194.254 116.437C194.158 116.704 194.11 116.981 194.11 117.269C194.11 117.61 194.168 117.909 194.286 118.165C194.414 118.41 194.574 118.624 194.766 118.805C194.958 118.976 195.171 119.104 195.406 119.189C195.64 119.274 195.864 119.317 196.078 119.317C196.28 119.317 196.483 119.28 196.686 119.205C196.899 119.13 197.096 119.029 197.278 118.901C197.47 118.762 197.64 118.602 197.79 118.421C197.939 118.24 198.062 118.042 198.158 117.829V116.597ZM201.31 111.765H208.094L203.022 119.125H208.046V119.765H201.054L206.126 112.405H201.31V111.765ZM209.154 111.765H215.938L210.866 119.125H215.89V119.765H208.898L213.97 112.405H209.154V111.765ZM220.646 111.589C221.425 111.589 222.027 111.701 222.454 111.925C222.881 112.138 223.19 112.421 223.382 112.773C223.585 113.125 223.702 113.53 223.734 113.989C223.766 114.448 223.782 114.917 223.782 115.397V119.765H222.486V118.981C222.177 119.28 221.782 119.52 221.302 119.701C220.822 119.872 220.342 119.957 219.862 119.957C219.403 119.957 218.998 119.877 218.646 119.717C218.294 119.557 218.001 119.349 217.766 119.093C217.531 118.837 217.355 118.549 217.238 118.229C217.121 117.909 217.062 117.584 217.062 117.253C217.062 116.912 217.126 116.57 217.254 116.229C217.382 115.888 217.574 115.584 217.83 115.317C218.086 115.04 218.401 114.816 218.774 114.645C219.147 114.474 219.574 114.389 220.054 114.389C220.534 114.389 220.987 114.485 221.414 114.677C221.851 114.858 222.209 115.12 222.486 115.461V114.773C222.486 113.898 222.353 113.248 222.086 112.821C221.83 112.394 221.355 112.181 220.662 112.181C220.363 112.181 220.102 112.218 219.878 112.293C219.654 112.368 219.451 112.474 219.27 112.613C219.099 112.741 218.939 112.906 218.79 113.109C218.641 113.301 218.491 113.52 218.342 113.765L217.51 112.933C217.659 112.773 217.814 112.613 217.974 112.453C218.145 112.293 218.347 112.149 218.582 112.021C218.827 111.893 219.115 111.792 219.446 111.717C219.777 111.632 220.177 111.589 220.646 111.589ZM222.486 116.597C222.433 116.469 222.353 116.32 222.246 116.149C222.15 115.978 222.022 115.813 221.862 115.653C221.702 115.493 221.51 115.36 221.286 115.253C221.062 115.136 220.795 115.077 220.486 115.077C220.177 115.077 219.894 115.141 219.638 115.269C219.382 115.386 219.163 115.546 218.982 115.749C218.811 115.941 218.678 116.17 218.582 116.437C218.486 116.704 218.438 116.981 218.438 117.269C218.438 117.61 218.497 117.909 218.614 118.165C218.742 118.41 218.902 118.624 219.094 118.805C219.286 118.976 219.499 119.104 219.734 119.189C219.969 119.274 220.193 119.317 220.406 119.317C220.609 119.317 220.811 119.28 221.014 119.205C221.227 119.13 221.425 119.029 221.606 118.901C221.798 118.762 221.969 118.602 222.118 118.421C222.267 118.24 222.39 118.042 222.486 117.829V116.597ZM227.703 108.565V115.733L231.639 111.765H232.679L229.623 114.837L233.639 119.765H231.847L228.631 115.813L227.703 116.757V119.765H226.343V108.565H227.703ZM240.633 120.437V118.485H240.569C240.387 118.997 240.073 119.37 239.625 119.605C239.187 119.84 238.67 119.957 238.073 119.957C237.529 119.957 237.033 119.861 236.585 119.669C236.147 119.466 235.769 119.184 235.449 118.821C235.129 118.448 234.878 118.005 234.697 117.493C234.526 116.97 234.441 116.389 234.441 115.749C234.441 115.12 234.526 114.549 234.697 114.037C234.878 113.525 235.129 113.088 235.449 112.725C235.769 112.362 236.153 112.085 236.601 111.893C237.049 111.69 237.545 111.589 238.089 111.589C238.771 111.589 239.321 111.717 239.737 111.973C240.163 112.218 240.441 112.565 240.569 113.013H240.633V111.765H241.993V119.621C241.993 120.154 241.939 120.666 241.833 121.157C241.737 121.658 241.55 122.101 241.273 122.485C240.995 122.869 240.606 123.173 240.105 123.397C239.603 123.632 238.947 123.749 238.137 123.749C237.699 123.749 237.31 123.69 236.969 123.573C236.627 123.466 236.334 123.333 236.089 123.173C235.843 123.024 235.641 122.869 235.481 122.709C235.321 122.56 235.203 122.437 235.129 122.341L236.009 121.541C236.297 122.021 236.611 122.405 236.953 122.693C237.305 122.981 237.763 123.125 238.329 123.125C238.649 123.125 238.947 123.077 239.225 122.981C239.513 122.885 239.758 122.73 239.961 122.517C240.174 122.304 240.339 122.026 240.457 121.685C240.574 121.344 240.633 120.928 240.633 120.437ZM240.633 116.357V115.173C240.633 114.81 240.585 114.458 240.489 114.117C240.393 113.776 240.249 113.477 240.057 113.221C239.875 112.954 239.646 112.746 239.369 112.597C239.091 112.437 238.777 112.357 238.425 112.357C238.265 112.357 238.041 112.394 237.753 112.469C237.475 112.533 237.198 112.682 236.921 112.917C236.654 113.152 236.419 113.493 236.217 113.941C236.014 114.378 235.913 114.97 235.913 115.717C235.913 116.421 235.993 116.997 236.153 117.445C236.323 117.893 236.531 118.24 236.777 118.485C237.033 118.73 237.305 118.901 237.593 118.997C237.891 119.082 238.169 119.125 238.425 119.125C238.713 119.125 238.99 119.066 239.257 118.949C239.523 118.821 239.758 118.64 239.961 118.405C240.163 118.17 240.323 117.882 240.441 117.541C240.569 117.2 240.633 116.805 240.633 116.357ZM244.546 108.565H245.906V112.853H245.97L246.146 112.629C246.508 112.224 246.892 111.952 247.298 111.813C247.714 111.664 248.108 111.589 248.482 111.589C248.759 111.589 249.047 111.626 249.346 111.701C249.655 111.776 249.938 111.92 250.194 112.133C250.45 112.346 250.663 112.645 250.834 113.029C251.004 113.402 251.09 113.888 251.09 114.485V119.765H249.73V114.853C249.73 114.533 249.708 114.224 249.666 113.925C249.634 113.626 249.559 113.365 249.442 113.141C249.324 112.917 249.154 112.741 248.93 112.613C248.716 112.474 248.428 112.405 248.066 112.405C247.554 112.405 247.154 112.512 246.866 112.725C246.578 112.928 246.359 113.173 246.21 113.461C246.071 113.749 245.986 114.048 245.954 114.357C245.922 114.666 245.906 114.928 245.906 115.141V119.765H244.546V108.565ZM261.463 115.781C261.463 116.336 261.367 116.869 261.175 117.381C260.983 117.882 260.706 118.325 260.343 118.709C259.991 119.093 259.559 119.397 259.047 119.621C258.546 119.845 257.98 119.957 257.351 119.957C256.711 119.957 256.13 119.845 255.607 119.621C255.095 119.386 254.658 119.077 254.295 118.693C253.943 118.309 253.666 117.866 253.463 117.365C253.271 116.853 253.175 116.325 253.175 115.781C253.175 115.226 253.271 114.698 253.463 114.197C253.666 113.685 253.943 113.237 254.295 112.853C254.658 112.469 255.095 112.165 255.607 111.941C256.13 111.706 256.711 111.589 257.351 111.589C257.98 111.589 258.546 111.706 259.047 111.941C259.559 112.165 259.991 112.469 260.343 112.853C260.706 113.237 260.983 113.685 261.175 114.197C261.367 114.698 261.463 115.226 261.463 115.781ZM259.943 115.781C259.943 115.034 259.863 114.432 259.703 113.973C259.543 113.504 259.335 113.141 259.079 112.885C258.823 112.629 258.54 112.458 258.231 112.373C257.922 112.277 257.623 112.229 257.335 112.229C257.047 112.229 256.748 112.277 256.439 112.373C256.13 112.458 255.842 112.629 255.575 112.885C255.319 113.141 255.106 113.504 254.935 113.973C254.775 114.432 254.695 115.034 254.695 115.781C254.695 116.517 254.775 117.12 254.935 117.589C255.106 118.048 255.319 118.405 255.575 118.661C255.842 118.917 256.13 119.093 256.439 119.189C256.748 119.274 257.047 119.317 257.335 119.317C257.623 119.317 257.922 119.274 258.231 119.189C258.54 119.093 258.823 118.917 259.079 118.661C259.335 118.405 259.543 118.048 259.703 117.589C259.863 117.12 259.943 116.517 259.943 115.781ZM263.546 111.765H264.906V117.045C264.906 117.152 264.916 117.322 264.938 117.557C264.959 117.781 265.028 118.01 265.146 118.245C265.274 118.48 265.46 118.688 265.706 118.869C265.962 119.04 266.314 119.125 266.762 119.125C267.039 119.125 267.306 119.077 267.562 118.981C267.818 118.885 268.042 118.741 268.234 118.549C268.426 118.346 268.58 118.096 268.698 117.797C268.815 117.498 268.874 117.141 268.874 116.725V111.765H270.234V119.765H268.874V118.757H268.81L268.554 119.013C268.18 119.386 267.807 119.637 267.434 119.765C267.071 119.904 266.735 119.968 266.426 119.957C265.722 119.957 265.172 119.84 264.778 119.605C264.394 119.36 264.111 119.077 263.93 118.757C263.748 118.426 263.636 118.096 263.594 117.765C263.562 117.424 263.546 117.157 263.546 116.965V111.765ZM272.843 111.765H274.203V113.045H274.299C274.491 112.565 274.736 112.202 275.035 111.957C275.333 111.712 275.707 111.589 276.155 111.589C276.208 111.589 276.288 111.6 276.395 111.621C276.512 111.632 276.635 111.664 276.763 111.717C276.901 111.76 277.035 111.824 277.163 111.909C277.301 111.994 277.419 112.101 277.515 112.229L276.971 113.221C276.875 113.082 276.72 112.933 276.507 112.773C276.304 112.613 276.08 112.533 275.835 112.533C275.653 112.533 275.467 112.576 275.275 112.661C275.083 112.746 274.907 112.885 274.747 113.077C274.587 113.269 274.453 113.52 274.347 113.829C274.251 114.128 274.203 114.496 274.203 114.933V119.765H272.843V111.765ZM279.464 111.765H280.824V119.765H279.464V111.765ZM279.272 109.237C279.272 109.002 279.357 108.8 279.528 108.629C279.699 108.458 279.901 108.373 280.136 108.373C280.371 108.373 280.573 108.458 280.744 108.629C280.915 108.8 281 109.002 281 109.237C281 109.472 280.915 109.674 280.744 109.845C280.573 110.016 280.371 110.101 280.136 110.101C279.901 110.101 279.699 110.016 279.528 109.845C279.357 109.674 279.272 109.472 279.272 109.237ZM124.952 137.373V142.461H129.96V143.165H124.952V148.349H123.976V143.165H118.952V142.461H123.976V137.373H124.952ZM134.419 147.053C134.483 147.426 134.659 147.72 134.947 147.933C135.235 148.136 135.581 148.237 135.987 148.237C136.52 148.237 136.957 148.114 137.299 147.869C137.64 147.624 137.907 147.282 138.099 146.845C138.291 146.397 138.419 145.864 138.483 145.245C138.557 144.626 138.595 143.944 138.595 143.197H138.531L138.387 143.565C138.291 143.81 138.147 144.018 137.955 144.189C137.773 144.349 137.565 144.482 137.331 144.589C137.096 144.696 136.845 144.77 136.579 144.813C136.323 144.856 136.067 144.877 135.811 144.877C135.448 144.877 135.069 144.808 134.675 144.669C134.291 144.53 133.939 144.312 133.619 144.013C133.299 143.714 133.032 143.341 132.819 142.893C132.616 142.434 132.515 141.885 132.515 141.245C132.515 140.722 132.605 140.226 132.787 139.757C132.968 139.288 133.219 138.877 133.539 138.525C133.859 138.173 134.243 137.896 134.691 137.693C135.139 137.48 135.635 137.373 136.179 137.373C136.968 137.373 137.608 137.549 138.099 137.901C138.6 138.253 138.984 138.706 139.251 139.261C139.528 139.816 139.715 140.44 139.811 141.133C139.907 141.826 139.955 142.509 139.955 143.181C139.955 143.906 139.88 144.616 139.731 145.309C139.592 146.002 139.357 146.621 139.027 147.165C138.707 147.698 138.291 148.13 137.779 148.461C137.267 148.781 136.643 148.941 135.907 148.941C135.555 148.941 135.219 148.904 134.899 148.829C134.579 148.754 134.291 148.642 134.035 148.493C133.779 148.344 133.565 148.152 133.395 147.917C133.224 147.672 133.117 147.384 133.075 147.053H134.419ZM138.435 141.133C138.435 140.589 138.365 140.125 138.227 139.741C138.088 139.357 137.912 139.042 137.699 138.797C137.485 138.541 137.24 138.36 136.963 138.253C136.696 138.136 136.435 138.077 136.179 138.077C135.976 138.077 135.747 138.114 135.491 138.189C135.245 138.264 135.011 138.413 134.787 138.637C134.563 138.861 134.376 139.176 134.227 139.581C134.077 139.976 134.003 140.493 134.003 141.133C134.003 141.73 134.067 142.226 134.195 142.621C134.333 143.005 134.509 143.314 134.723 143.549C134.936 143.784 135.165 143.949 135.411 144.045C135.667 144.141 135.917 144.189 136.163 144.189C136.429 144.189 136.696 144.136 136.963 144.029C137.229 143.912 137.469 143.736 137.683 143.501C137.907 143.256 138.088 142.941 138.227 142.557C138.365 142.162 138.435 141.688 138.435 141.133ZM149.138 148.765H141.778L144.802 145.389C145.069 145.069 145.351 144.722 145.65 144.349C145.959 143.976 146.242 143.581 146.498 143.165C146.754 142.749 146.967 142.317 147.138 141.869C147.309 141.421 147.394 140.962 147.394 140.493C147.394 139.757 147.197 139.17 146.802 138.733C146.418 138.296 145.922 138.077 145.314 138.077C144.951 138.077 144.647 138.146 144.402 138.285C144.167 138.424 143.97 138.61 143.81 138.845C143.661 139.069 143.549 139.336 143.474 139.645C143.399 139.944 143.346 140.258 143.314 140.589H141.714C141.714 140.141 141.805 139.72 141.986 139.325C142.167 138.93 142.418 138.589 142.738 138.301C143.069 138.013 143.453 137.789 143.89 137.629C144.327 137.458 144.802 137.373 145.314 137.373C145.89 137.373 146.407 137.458 146.866 137.629C147.325 137.789 147.709 138.013 148.018 138.301C148.327 138.589 148.562 138.925 148.722 139.309C148.893 139.682 148.978 140.077 148.978 140.493C148.978 141.016 148.925 141.464 148.818 141.837C148.722 142.21 148.562 142.573 148.338 142.925C148.125 143.266 147.842 143.629 147.49 144.013C147.149 144.397 146.733 144.856 146.242 145.389L144.162 147.613H149.138V148.765ZM154.529 143.885V145.085H150.577V143.885H154.529ZM159.348 142.461C159.572 142.461 159.828 142.44 160.116 142.397C160.415 142.344 160.692 142.242 160.948 142.093C161.215 141.933 161.434 141.709 161.604 141.421C161.786 141.133 161.876 140.754 161.876 140.285C161.876 139.997 161.834 139.725 161.748 139.469C161.674 139.202 161.551 138.968 161.38 138.765C161.22 138.552 161.012 138.386 160.756 138.269C160.5 138.141 160.196 138.077 159.844 138.077C159.62 138.077 159.407 138.104 159.204 138.157C159.002 138.21 158.82 138.312 158.66 138.461C158.5 138.6 158.367 138.797 158.26 139.053C158.154 139.309 158.079 139.634 158.036 140.029H156.612C156.623 139.741 156.682 139.442 156.788 139.133C156.906 138.813 157.092 138.525 157.348 138.269C157.604 138.002 157.94 137.789 158.356 137.629C158.772 137.458 159.295 137.373 159.924 137.373C160.5 137.373 160.996 137.458 161.412 137.629C161.839 137.789 162.186 138.008 162.452 138.285C162.73 138.552 162.932 138.866 163.06 139.229C163.188 139.592 163.252 139.97 163.252 140.365C163.252 140.92 163.103 141.373 162.804 141.725C162.506 142.066 162.052 142.365 161.444 142.621L161.268 142.685V142.797L161.444 142.829C161.796 142.882 162.111 143 162.388 143.181C162.666 143.352 162.9 143.565 163.092 143.821C163.295 144.066 163.45 144.344 163.556 144.653C163.663 144.952 163.716 145.25 163.716 145.549C163.716 145.976 163.631 146.392 163.46 146.797C163.3 147.202 163.055 147.565 162.724 147.885C162.394 148.194 161.978 148.445 161.476 148.637C160.986 148.829 160.41 148.925 159.748 148.925C159.279 148.936 158.836 148.872 158.42 148.733C158.004 148.594 157.636 148.402 157.316 148.157C157.007 147.901 156.756 147.608 156.564 147.277C156.383 146.946 156.292 146.6 156.292 146.237H157.892C157.903 146.493 157.956 146.744 158.052 146.989C158.159 147.234 158.298 147.448 158.468 147.629C158.65 147.81 158.863 147.96 159.108 148.077C159.354 148.184 159.631 148.237 159.94 148.237C160.58 148.237 161.098 148.024 161.492 147.597C161.898 147.17 162.1 146.509 162.1 145.613C162.1 145.421 162.079 145.186 162.036 144.909C161.994 144.632 161.882 144.365 161.7 144.109C161.53 143.842 161.258 143.618 160.884 143.437C160.511 143.256 159.999 143.165 159.348 143.165V142.461ZM168.184 148.765H166.824V139.069L165.592 140.349L165.16 139.901L167.416 137.565H168.184V148.765ZM173.277 142.733C172.904 142.69 172.578 142.584 172.301 142.413C172.034 142.242 171.805 142.04 171.613 141.805C171.432 141.56 171.293 141.298 171.197 141.021C171.112 140.744 171.069 140.466 171.069 140.189C171.069 139.89 171.128 139.576 171.245 139.245C171.362 138.914 171.554 138.61 171.821 138.333C172.088 138.056 172.434 137.826 172.861 137.645C173.288 137.464 173.816 137.373 174.445 137.373C175.064 137.373 175.586 137.464 176.013 137.645C176.45 137.826 176.802 138.056 177.069 138.333C177.336 138.61 177.528 138.914 177.645 139.245C177.773 139.576 177.837 139.89 177.837 140.189C177.837 140.466 177.789 140.744 177.693 141.021C177.608 141.298 177.469 141.56 177.277 141.805C177.096 142.04 176.866 142.242 176.589 142.413C176.322 142.584 176.008 142.69 175.645 142.733V142.813C176.04 142.834 176.392 142.936 176.701 143.117C177.021 143.288 177.288 143.512 177.501 143.789C177.725 144.056 177.896 144.354 178.013 144.685C178.13 145.016 178.189 145.346 178.189 145.677C178.189 146.072 178.109 146.466 177.949 146.861C177.8 147.245 177.57 147.592 177.261 147.901C176.952 148.21 176.562 148.461 176.093 148.653C175.624 148.845 175.074 148.941 174.445 148.941C173.816 148.941 173.266 148.845 172.797 148.653C172.338 148.461 171.954 148.21 171.645 147.901C171.346 147.592 171.122 147.245 170.973 146.861C170.824 146.466 170.749 146.072 170.749 145.677C170.749 145.346 170.808 145.016 170.925 144.685C171.042 144.354 171.208 144.056 171.421 143.789C171.634 143.512 171.896 143.288 172.205 143.117C172.525 142.936 172.882 142.834 173.277 142.813V142.733ZM174.445 142.541C174.712 142.541 174.968 142.498 175.213 142.413C175.469 142.317 175.693 142.178 175.885 141.997C176.088 141.805 176.248 141.576 176.365 141.309C176.482 141.032 176.541 140.706 176.541 140.333C176.541 139.885 176.466 139.517 176.317 139.229C176.178 138.93 176.002 138.701 175.789 138.541C175.576 138.37 175.346 138.253 175.101 138.189C174.866 138.114 174.648 138.077 174.445 138.077C174.242 138.077 174.024 138.114 173.789 138.189C173.554 138.253 173.33 138.37 173.117 138.541C172.914 138.701 172.744 138.93 172.605 139.229C172.466 139.517 172.397 139.885 172.397 140.333C172.397 140.706 172.456 141.032 172.573 141.309C172.69 141.576 172.845 141.805 173.037 141.997C173.229 142.178 173.448 142.317 173.693 142.413C173.938 142.498 174.189 142.541 174.445 142.541ZM174.445 143.101C174.125 143.101 173.832 143.165 173.565 143.293C173.298 143.41 173.069 143.581 172.877 143.805C172.696 144.018 172.552 144.274 172.445 144.573C172.349 144.861 172.301 145.176 172.301 145.517C172.301 146.349 172.493 147.01 172.877 147.501C173.272 147.992 173.794 148.237 174.445 148.237C175.117 148.237 175.65 147.992 176.045 147.501C176.44 147.01 176.637 146.349 176.637 145.517C176.637 145.176 176.584 144.861 176.477 144.573C176.381 144.274 176.237 144.018 176.045 143.805C175.853 143.581 175.618 143.41 175.341 143.293C175.074 143.165 174.776 143.101 174.445 143.101ZM182.652 148.765H181.292V139.069L180.06 140.349L179.628 139.901L181.884 137.565H182.652V148.765ZM187.762 148.765H186.402V139.069L185.17 140.349L184.738 139.901L186.994 137.565H187.762V148.765ZM192.855 142.733C192.482 142.69 192.157 142.584 191.879 142.413C191.613 142.242 191.383 142.04 191.191 141.805C191.01 141.56 190.871 141.298 190.775 141.021C190.69 140.744 190.647 140.466 190.647 140.189C190.647 139.89 190.706 139.576 190.823 139.245C190.941 138.914 191.133 138.61 191.399 138.333C191.666 138.056 192.013 137.826 192.439 137.645C192.866 137.464 193.394 137.373 194.023 137.373C194.642 137.373 195.165 137.464 195.591 137.645C196.029 137.826 196.381 138.056 196.647 138.333C196.914 138.61 197.106 138.914 197.223 139.245C197.351 139.576 197.415 139.89 197.415 140.189C197.415 140.466 197.367 140.744 197.271 141.021C197.186 141.298 197.047 141.56 196.855 141.805C196.674 142.04 196.445 142.242 196.167 142.413C195.901 142.584 195.586 142.69 195.223 142.733V142.813C195.618 142.834 195.97 142.936 196.279 143.117C196.599 143.288 196.866 143.512 197.079 143.789C197.303 144.056 197.474 144.354 197.591 144.685C197.709 145.016 197.767 145.346 197.767 145.677C197.767 146.072 197.687 146.466 197.527 146.861C197.378 147.245 197.149 147.592 196.839 147.901C196.53 148.21 196.141 148.461 195.671 148.653C195.202 148.845 194.653 148.941 194.023 148.941C193.394 148.941 192.845 148.845 192.375 148.653C191.917 148.461 191.533 148.21 191.223 147.901C190.925 147.592 190.701 147.245 190.551 146.861C190.402 146.466 190.327 146.072 190.327 145.677C190.327 145.346 190.386 145.016 190.503 144.685C190.621 144.354 190.786 144.056 190.999 143.789C191.213 143.512 191.474 143.288 191.783 143.117C192.103 142.936 192.461 142.834 192.855 142.813V142.733ZM194.023 142.541C194.29 142.541 194.546 142.498 194.791 142.413C195.047 142.317 195.271 142.178 195.463 141.997C195.666 141.805 195.826 141.576 195.943 141.309C196.061 141.032 196.119 140.706 196.119 140.333C196.119 139.885 196.045 139.517 195.895 139.229C195.757 138.93 195.581 138.701 195.367 138.541C195.154 138.37 194.925 138.253 194.679 138.189C194.445 138.114 194.226 138.077 194.023 138.077C193.821 138.077 193.602 138.114 193.367 138.189C193.133 138.253 192.909 138.37 192.695 138.541C192.493 138.701 192.322 138.93 192.183 139.229C192.045 139.517 191.975 139.885 191.975 140.333C191.975 140.706 192.034 141.032 192.151 141.309C192.269 141.576 192.423 141.805 192.615 141.997C192.807 142.178 193.026 142.317 193.271 142.413C193.517 142.498 193.767 142.541 194.023 142.541ZM194.023 143.101C193.703 143.101 193.41 143.165 193.143 143.293C192.877 143.41 192.647 143.581 192.455 143.805C192.274 144.018 192.13 144.274 192.023 144.573C191.927 144.861 191.879 145.176 191.879 145.517C191.879 146.349 192.071 147.01 192.455 147.501C192.85 147.992 193.373 148.237 194.023 148.237C194.695 148.237 195.229 147.992 195.623 147.501C196.018 147.01 196.215 146.349 196.215 145.517C196.215 145.176 196.162 144.861 196.055 144.573C195.959 144.274 195.815 144.018 195.623 143.805C195.431 143.581 195.197 143.41 194.919 143.293C194.653 143.165 194.354 143.101 194.023 143.101ZM206.743 137.565L204.583 142.893H205.943V143.581H204.311L202.215 148.765H200.887L202.983 143.581H201.479V142.893H203.255L205.063 138.445H199.207V137.565H206.743ZM210.715 142.733C210.341 142.69 210.016 142.584 209.739 142.413C209.472 142.242 209.243 142.04 209.051 141.805C208.869 141.56 208.731 141.298 208.635 141.021C208.549 140.744 208.507 140.466 208.507 140.189C208.507 139.89 208.565 139.576 208.683 139.245C208.8 138.914 208.992 138.61 209.259 138.333C209.525 138.056 209.872 137.826 210.299 137.645C210.725 137.464 211.253 137.373 211.883 137.373C212.501 137.373 213.024 137.464 213.451 137.645C213.888 137.826 214.24 138.056 214.507 138.333C214.773 138.61 214.965 138.914 215.083 139.245C215.211 139.576 215.275 139.89 215.275 140.189C215.275 140.466 215.227 140.744 215.131 141.021C215.045 141.298 214.907 141.56 214.715 141.805C214.533 142.04 214.304 142.242 214.027 142.413C213.76 142.584 213.445 142.69 213.083 142.733V142.813C213.477 142.834 213.829 142.936 214.139 143.117C214.459 143.288 214.725 143.512 214.939 143.789C215.163 144.056 215.333 144.354 215.451 144.685C215.568 145.016 215.627 145.346 215.627 145.677C215.627 146.072 215.547 146.466 215.387 146.861C215.237 147.245 215.008 147.592 214.699 147.901C214.389 148.21 214 148.461 213.531 148.653C213.061 148.845 212.512 148.941 211.883 148.941C211.253 148.941 210.704 148.845 210.235 148.653C209.776 148.461 209.392 148.21 209.083 147.901C208.784 147.592 208.56 147.245 208.411 146.861C208.261 146.466 208.187 146.072 208.187 145.677C208.187 145.346 208.245 145.016 208.363 144.685C208.48 144.354 208.645 144.056 208.859 143.789C209.072 143.512 209.333 143.288 209.643 143.117C209.963 142.936 210.32 142.834 210.715 142.813V142.733ZM211.883 142.541C212.149 142.541 212.405 142.498 212.651 142.413C212.907 142.317 213.131 142.178 213.323 141.997C213.525 141.805 213.685 141.576 213.803 141.309C213.92 141.032 213.979 140.706 213.979 140.333C213.979 139.885 213.904 139.517 213.755 139.229C213.616 138.93 213.44 138.701 213.227 138.541C213.013 138.37 212.784 138.253 212.539 138.189C212.304 138.114 212.085 138.077 211.883 138.077C211.68 138.077 211.461 138.114 211.227 138.189C210.992 138.253 210.768 138.37 210.555 138.541C210.352 138.701 210.181 138.93 210.043 139.229C209.904 139.517 209.835 139.885 209.835 140.333C209.835 140.706 209.893 141.032 210.011 141.309C210.128 141.576 210.283 141.805 210.475 141.997C210.667 142.178 210.885 142.317 211.131 142.413C211.376 142.498 211.627 142.541 211.883 142.541ZM211.883 143.101C211.563 143.101 211.269 143.165 211.003 143.293C210.736 143.41 210.507 143.581 210.315 143.805C210.133 144.018 209.989 144.274 209.883 144.573C209.787 144.861 209.739 145.176 209.739 145.517C209.739 146.349 209.931 147.01 210.315 147.501C210.709 147.992 211.232 148.237 211.883 148.237C212.555 148.237 213.088 147.992 213.483 147.501C213.877 147.01 214.075 146.349 214.075 145.517C214.075 145.176 214.021 144.861 213.915 144.573C213.819 144.274 213.675 144.018 213.483 143.805C213.291 143.581 213.056 143.41 212.779 143.293C212.512 143.165 212.213 143.101 211.883 143.101ZM219.418 141.581C219.717 141.464 219.983 141.378 220.218 141.325C220.463 141.261 220.735 141.229 221.034 141.229C221.546 141.229 222.021 141.314 222.458 141.485C222.895 141.645 223.274 141.885 223.594 142.205C223.925 142.514 224.181 142.888 224.362 143.325C224.554 143.762 224.65 144.253 224.65 144.797C224.65 145.458 224.538 146.045 224.314 146.557C224.101 147.069 223.802 147.501 223.418 147.853C223.045 148.205 222.602 148.477 222.09 148.669C221.589 148.85 221.05 148.941 220.474 148.941C219.983 148.941 219.53 148.872 219.114 148.733C218.709 148.584 218.357 148.386 218.058 148.141C217.759 147.896 217.519 147.602 217.338 147.261C217.167 146.92 217.077 146.557 217.066 146.173H218.234C218.245 146.461 218.303 146.733 218.41 146.989C218.517 147.234 218.661 147.453 218.842 147.645C219.034 147.826 219.263 147.97 219.53 148.077C219.797 148.184 220.101 148.237 220.442 148.237C220.751 148.237 221.061 148.178 221.37 148.061C221.679 147.933 221.957 147.736 222.202 147.469C222.458 147.192 222.661 146.845 222.81 146.429C222.97 146.002 223.05 145.49 223.05 144.893C223.05 144.05 222.826 143.368 222.378 142.845C221.93 142.322 221.258 142.061 220.362 142.061C220.149 142.061 219.855 142.082 219.482 142.125C219.109 142.168 218.693 142.306 218.234 142.541L219.658 137.565H224.506L224.186 138.445H220.346L219.418 141.581ZM228.449 141.581C228.748 141.464 229.015 141.378 229.249 141.325C229.495 141.261 229.767 141.229 230.065 141.229C230.577 141.229 231.052 141.314 231.489 141.485C231.927 141.645 232.305 141.885 232.625 142.205C232.956 142.514 233.212 142.888 233.393 143.325C233.585 143.762 233.681 144.253 233.681 144.797C233.681 145.458 233.569 146.045 233.345 146.557C233.132 147.069 232.833 147.501 232.449 147.853C232.076 148.205 231.633 148.477 231.121 148.669C230.62 148.85 230.081 148.941 229.505 148.941C229.015 148.941 228.561 148.872 228.145 148.733C227.74 148.584 227.388 148.386 227.089 148.141C226.791 147.896 226.551 147.602 226.369 147.261C226.199 146.92 226.108 146.557 226.097 146.173H227.265C227.276 146.461 227.335 146.733 227.441 146.989C227.548 147.234 227.692 147.453 227.873 147.645C228.065 147.826 228.295 147.97 228.561 148.077C228.828 148.184 229.132 148.237 229.473 148.237C229.783 148.237 230.092 148.178 230.401 148.061C230.711 147.933 230.988 147.736 231.233 147.469C231.489 147.192 231.692 146.845 231.841 146.429C232.001 146.002 232.081 145.49 232.081 144.893C232.081 144.05 231.857 143.368 231.409 142.845C230.961 142.322 230.289 142.061 229.393 142.061C229.18 142.061 228.887 142.082 228.513 142.125C228.14 142.168 227.724 142.306 227.265 142.541L228.689 137.565H233.537L233.217 138.445H229.377L228.449 141.581ZM129.302 177.765H121.942L124.966 174.389C125.233 174.069 125.515 173.722 125.814 173.349C126.123 172.976 126.406 172.581 126.662 172.165C126.918 171.749 127.131 171.317 127.302 170.869C127.473 170.421 127.558 169.962 127.558 169.493C127.558 168.757 127.361 168.17 126.966 167.733C126.582 167.296 126.086 167.077 125.478 167.077C125.115 167.077 124.811 167.146 124.566 167.285C124.331 167.424 124.134 167.61 123.974 167.845C123.825 168.069 123.713 168.336 123.638 168.645C123.563 168.944 123.51 169.258 123.478 169.589H121.878C121.878 169.141 121.969 168.72 122.15 168.325C122.331 167.93 122.582 167.589 122.902 167.301C123.233 167.013 123.617 166.789 124.054 166.629C124.491 166.458 124.966 166.373 125.478 166.373C126.054 166.373 126.571 166.458 127.03 166.629C127.489 166.789 127.873 167.013 128.182 167.301C128.491 167.589 128.726 167.925 128.886 168.309C129.057 168.682 129.142 169.077 129.142 169.493C129.142 170.016 129.089 170.464 128.982 170.837C128.886 171.21 128.726 171.573 128.502 171.925C128.289 172.266 128.006 172.629 127.654 173.013C127.313 173.397 126.897 173.856 126.406 174.389L124.326 176.613H129.302V177.765ZM136.373 174.229H137.893V175.077H136.373V177.765H135.077V175.077H130.261L135.781 166.565H136.373V174.229ZM131.509 174.229H135.077V168.709L131.509 174.229ZM146.307 166.373L140.115 177.957H139.011L145.171 166.373H146.307ZM154.797 166.565L152.637 171.893H153.997V172.581H152.365L150.269 177.765H148.941L151.037 172.581H149.533V171.893H151.309L153.117 167.445H147.261V166.565H154.797ZM169.019 174.469H163.499L162.091 177.765H161.355L166.091 166.565H166.891L172.107 177.765H170.555L169.019 174.469ZM168.683 173.749L166.171 168.357H166.107L163.803 173.749H168.683ZM172.914 169.765H174.322L176.994 176.181H177.09L179.682 169.765H180.434L177.202 177.765H176.242L172.914 169.765ZM184.974 169.589C185.753 169.589 186.355 169.701 186.782 169.925C187.209 170.138 187.518 170.421 187.71 170.773C187.913 171.125 188.03 171.53 188.062 171.989C188.094 172.448 188.11 172.917 188.11 173.397V177.765H186.814V176.981C186.505 177.28 186.11 177.52 185.63 177.701C185.15 177.872 184.67 177.957 184.19 177.957C183.731 177.957 183.326 177.877 182.974 177.717C182.622 177.557 182.329 177.349 182.094 177.093C181.859 176.837 181.683 176.549 181.566 176.229C181.449 175.909 181.39 175.584 181.39 175.253C181.39 174.912 181.454 174.57 181.582 174.229C181.71 173.888 181.902 173.584 182.158 173.317C182.414 173.04 182.729 172.816 183.102 172.645C183.475 172.474 183.902 172.389 184.382 172.389C184.862 172.389 185.315 172.485 185.742 172.677C186.179 172.858 186.537 173.12 186.814 173.461V172.773C186.814 171.898 186.681 171.248 186.414 170.821C186.158 170.394 185.683 170.181 184.99 170.181C184.691 170.181 184.43 170.218 184.206 170.293C183.982 170.368 183.779 170.474 183.598 170.613C183.427 170.741 183.267 170.906 183.118 171.109C182.969 171.301 182.819 171.52 182.67 171.765L181.838 170.933C181.987 170.773 182.142 170.613 182.302 170.453C182.473 170.293 182.675 170.149 182.91 170.021C183.155 169.893 183.443 169.792 183.774 169.717C184.105 169.632 184.505 169.589 184.974 169.589ZM186.814 174.597C186.761 174.469 186.681 174.32 186.574 174.149C186.478 173.978 186.35 173.813 186.19 173.653C186.03 173.493 185.838 173.36 185.614 173.253C185.39 173.136 185.123 173.077 184.814 173.077C184.505 173.077 184.222 173.141 183.966 173.269C183.71 173.386 183.491 173.546 183.31 173.749C183.139 173.941 183.006 174.17 182.91 174.437C182.814 174.704 182.766 174.981 182.766 175.269C182.766 175.61 182.825 175.909 182.942 176.165C183.07 176.41 183.23 176.624 183.422 176.805C183.614 176.976 183.827 177.104 184.062 177.189C184.297 177.274 184.521 177.317 184.734 177.317C184.937 177.317 185.139 177.28 185.342 177.205C185.555 177.13 185.753 177.029 185.934 176.901C186.126 176.762 186.297 176.602 186.446 176.421C186.595 176.24 186.718 176.042 186.814 175.829V174.597ZM191.183 169.765H192.543V177.765H191.183V169.765ZM190.991 167.237C190.991 167.002 191.076 166.8 191.247 166.629C191.417 166.458 191.62 166.373 191.855 166.373C192.089 166.373 192.292 166.458 192.463 166.629C192.633 166.8 192.719 167.002 192.719 167.237C192.719 167.472 192.633 167.674 192.463 167.845C192.292 168.016 192.089 168.101 191.855 168.101C191.62 168.101 191.417 168.016 191.247 167.845C191.076 167.674 190.991 167.472 190.991 167.237ZM197.273 166.565V177.765H195.913V166.565H197.273ZM203.099 169.589C203.878 169.589 204.48 169.701 204.907 169.925C205.334 170.138 205.643 170.421 205.835 170.773C206.038 171.125 206.155 171.53 206.187 171.989C206.219 172.448 206.235 172.917 206.235 173.397V177.765H204.939V176.981C204.63 177.28 204.235 177.52 203.755 177.701C203.275 177.872 202.795 177.957 202.315 177.957C201.856 177.957 201.451 177.877 201.099 177.717C200.747 177.557 200.454 177.349 200.219 177.093C199.984 176.837 199.808 176.549 199.691 176.229C199.574 175.909 199.515 175.584 199.515 175.253C199.515 174.912 199.579 174.57 199.707 174.229C199.835 173.888 200.027 173.584 200.283 173.317C200.539 173.04 200.854 172.816 201.227 172.645C201.6 172.474 202.027 172.389 202.507 172.389C202.987 172.389 203.44 172.485 203.867 172.677C204.304 172.858 204.662 173.12 204.939 173.461V172.773C204.939 171.898 204.806 171.248 204.539 170.821C204.283 170.394 203.808 170.181 203.115 170.181C202.816 170.181 202.555 170.218 202.331 170.293C202.107 170.368 201.904 170.474 201.723 170.613C201.552 170.741 201.392 170.906 201.243 171.109C201.094 171.301 200.944 171.52 200.795 171.765L199.963 170.933C200.112 170.773 200.267 170.613 200.427 170.453C200.598 170.293 200.8 170.149 201.035 170.021C201.28 169.893 201.568 169.792 201.899 169.717C202.23 169.632 202.63 169.589 203.099 169.589ZM204.939 174.597C204.886 174.469 204.806 174.32 204.699 174.149C204.603 173.978 204.475 173.813 204.315 173.653C204.155 173.493 203.963 173.36 203.739 173.253C203.515 173.136 203.248 173.077 202.939 173.077C202.63 173.077 202.347 173.141 202.091 173.269C201.835 173.386 201.616 173.546 201.435 173.749C201.264 173.941 201.131 174.17 201.035 174.437C200.939 174.704 200.891 174.981 200.891 175.269C200.891 175.61 200.95 175.909 201.067 176.165C201.195 176.41 201.355 176.624 201.547 176.805C201.739 176.976 201.952 177.104 202.187 177.189C202.422 177.274 202.646 177.317 202.859 177.317C203.062 177.317 203.264 177.28 203.467 177.205C203.68 177.13 203.878 177.029 204.059 176.901C204.251 176.762 204.422 176.602 204.571 176.421C204.72 176.24 204.843 176.042 204.939 175.829V174.597ZM208.796 166.565H210.156V171.077H210.22C210.326 170.8 210.465 170.57 210.636 170.389C210.817 170.197 211.02 170.042 211.244 169.925C211.468 169.808 211.702 169.722 211.948 169.669C212.204 169.616 212.46 169.589 212.716 169.589C213.249 169.589 213.74 169.69 214.188 169.893C214.636 170.085 215.02 170.362 215.34 170.725C215.67 171.088 215.926 171.525 216.108 172.037C216.289 172.549 216.38 173.12 216.38 173.749C216.38 174.389 216.289 174.97 216.108 175.493C215.926 176.005 215.67 176.448 215.34 176.821C215.02 177.184 214.636 177.466 214.188 177.669C213.74 177.861 213.249 177.957 212.716 177.957C211.446 177.957 210.614 177.461 210.22 176.469H210.156V177.765H208.796V166.565ZM210.156 174.565C210.156 174.917 210.209 175.253 210.316 175.573C210.433 175.882 210.593 176.154 210.796 176.389C210.998 176.613 211.233 176.794 211.5 176.933C211.777 177.061 212.07 177.125 212.38 177.125C212.71 177.125 213.025 177.066 213.324 176.949C213.633 176.821 213.9 176.624 214.124 176.357C214.348 176.09 214.524 175.744 214.652 175.317C214.79 174.89 214.86 174.378 214.86 173.781C214.86 173.173 214.79 172.656 214.652 172.229C214.524 171.802 214.342 171.456 214.108 171.189C213.884 170.912 213.622 170.714 213.324 170.597C213.025 170.469 212.71 170.405 212.38 170.405C212.081 170.405 211.798 170.469 211.532 170.597C211.265 170.714 211.03 170.896 210.828 171.141C210.625 171.376 210.46 171.664 210.332 172.005C210.214 172.346 210.156 172.736 210.156 173.173V174.565ZM220.132 166.565V177.765H218.772V166.565H220.132ZM230.118 174.117H224.038C224.038 174.768 224.134 175.301 224.326 175.717C224.518 176.133 224.758 176.458 225.046 176.693C225.334 176.928 225.644 177.093 225.974 177.189C226.316 177.274 226.636 177.317 226.934 177.317C227.201 177.317 227.441 177.29 227.654 177.237C227.878 177.173 228.092 177.088 228.294 176.981C228.497 176.874 228.694 176.741 228.886 176.581C229.089 176.421 229.302 176.245 229.526 176.053L230.038 176.565C229.612 177.013 229.11 177.36 228.534 177.605C227.958 177.84 227.329 177.957 226.646 177.957C225.942 177.957 225.329 177.84 224.806 177.605C224.294 177.36 223.868 177.04 223.526 176.645C223.196 176.24 222.945 175.786 222.774 175.285C222.614 174.773 222.534 174.25 222.534 173.717C222.534 173.077 222.63 172.506 222.822 172.005C223.014 171.493 223.281 171.061 223.622 170.709C223.964 170.346 224.364 170.074 224.822 169.893C225.281 169.701 225.782 169.605 226.326 169.605C226.838 169.605 227.324 169.69 227.782 169.861C228.241 170.032 228.641 170.288 228.982 170.629C229.334 170.97 229.612 171.402 229.814 171.925C230.017 172.448 230.118 173.066 230.118 173.781V174.117ZM224.038 173.477H228.726C228.726 172.442 228.513 171.632 228.086 171.045C227.67 170.448 227.084 170.149 226.326 170.149C225.932 170.149 225.59 170.245 225.302 170.437C225.014 170.618 224.774 170.864 224.582 171.173C224.401 171.482 224.262 171.84 224.166 172.245C224.081 172.64 224.038 173.05 224.038 173.477Z" fill="#333333"/>
</svg>
