<svg width="375" height="51" viewBox="0 0 375 51" fill="none" xmlns="http://www.w3.org/2000/svg">
<path d="M59.04 13.759L63.396 21.589V26.359H65.034V21.427L69.462 13.759H68.49L64.638 20.401H64.566L60.894 13.759H59.04ZM74.8961 20.059C74.8961 20.731 75.0221 21.451 75.2741 22.219C75.5381 22.975 75.9461 23.677 76.4981 24.325C77.0501 24.973 77.7521 25.513 78.6041 25.945C79.4561 26.365 80.4761 26.575 81.6641 26.575C82.4681 26.575 83.1941 26.479 83.8421 26.287C84.5021 26.083 85.0901 25.813 85.6061 25.477C86.1341 25.141 86.5901 24.757 86.9741 24.325C87.3581 23.881 87.6701 23.419 87.9101 22.939C88.1621 22.447 88.3481 21.955 88.4681 21.463C88.6001 20.971 88.6661 20.503 88.6661 20.059C88.6661 19.387 88.5281 18.673 88.2521 17.917C87.9761 17.149 87.5501 16.441 86.9741 15.793C86.3981 15.145 85.6661 14.611 84.7781 14.191C83.9021 13.759 82.8641 13.543 81.6641 13.543C80.4761 13.543 79.4561 13.753 78.6041 14.173C77.7521 14.593 77.0501 15.127 76.4981 15.775C75.9461 16.411 75.5381 17.113 75.2741 17.881C75.0221 18.649 74.8961 19.375 74.8961 20.059ZM76.6601 20.059C76.6601 19.219 76.7861 18.451 77.0381 17.755C77.3021 17.047 77.6561 16.441 78.1001 15.937C78.5561 15.433 79.0901 15.043 79.7021 14.767C80.3141 14.479 80.9801 14.335 81.7001 14.335C82.4081 14.335 83.0741 14.479 83.6981 14.767C84.3341 15.043 84.8861 15.433 85.3541 15.937C85.8341 16.441 86.2121 17.047 86.4881 17.755C86.7641 18.451 86.9021 19.219 86.9021 20.059C86.9021 20.899 86.7641 21.673 86.4881 22.381C86.2121 23.077 85.8341 23.677 85.3541 24.181C84.8861 24.685 84.3341 25.081 83.6981 25.369C83.0741 25.645 82.4081 25.783 81.7001 25.783C80.9801 25.783 80.3141 25.645 79.7021 25.369C79.0901 25.081 78.5561 24.685 78.1001 24.181C77.6561 23.677 77.3021 23.077 77.0381 22.381C76.7861 21.673 76.6601 20.899 76.6601 20.059ZM95.0103 13.759V21.499C95.0103 21.991 95.0583 22.537 95.1543 23.137C95.2503 23.725 95.4783 24.277 95.8383 24.793C96.1983 25.297 96.7323 25.723 97.4403 26.071C98.1483 26.407 99.1143 26.575 100.338 26.575C101.106 26.575 101.784 26.455 102.372 26.215C102.972 25.975 103.47 25.645 103.866 25.225C104.274 24.805 104.58 24.319 104.784 23.767C104.988 23.203 105.09 22.603 105.09 21.967V13.759H104.298V21.373C104.298 21.637 104.292 21.907 104.28 22.183C104.268 22.447 104.232 22.717 104.172 22.993C104.112 23.257 104.016 23.521 103.884 23.785C103.764 24.049 103.584 24.313 103.344 24.577C102.912 25.045 102.426 25.363 101.886 25.531C101.346 25.699 100.782 25.783 100.194 25.783C99.6903 25.783 99.2403 25.705 98.8443 25.549C98.4603 25.393 98.0943 25.159 97.7463 24.847C97.4703 24.607 97.2603 24.367 97.1163 24.127C96.9723 23.887 96.8643 23.653 96.7923 23.425C96.7203 23.185 96.6783 22.945 96.6663 22.705C96.6543 22.465 96.6483 22.225 96.6483 21.985V13.759H95.0103ZM124.202 13.759H122.978V26.359H123.77V16.081H123.842L129.404 26.575H129.728L135.416 16.153H135.488V26.359H137.126V13.759H135.884L130.052 24.577H129.98L124.202 13.759ZM152.455 22.651L154.183 26.359H155.929L150.061 13.759H149.161L143.833 26.359H144.661L146.245 22.651H152.455ZM152.077 21.841H146.587L149.179 15.775H149.251L152.077 21.841ZM159.399 13.759L163.755 21.589V26.359H165.393V21.427L169.821 13.759H168.849L164.997 20.401H164.925L161.253 13.759H159.399ZM193.81 22.651L195.538 26.359H197.284L191.416 13.759H190.516L185.188 26.359H186.016L187.6 22.651H193.81ZM193.432 21.841H187.942L190.534 15.775H190.606L193.432 21.841ZM203.992 26.359V13.759H205.63V25.369H212.128V26.359H203.992ZM217.326 23.173C217.35 23.689 217.482 24.157 217.722 24.577C217.974 24.997 218.31 25.357 218.73 25.657C219.162 25.945 219.666 26.173 220.242 26.341C220.818 26.497 221.448 26.575 222.132 26.575C222.828 26.575 223.452 26.491 224.004 26.323C224.568 26.155 225.048 25.915 225.444 25.603C225.84 25.291 226.146 24.913 226.362 24.469C226.578 24.025 226.686 23.533 226.686 22.993C226.686 22.249 226.5 21.643 226.128 21.175C225.756 20.695 225.288 20.299 224.724 19.987C224.172 19.663 223.566 19.393 222.906 19.177C222.258 18.961 221.652 18.733 221.088 18.493C220.536 18.253 220.074 17.977 219.702 17.665C219.33 17.353 219.144 16.939 219.144 16.423C219.144 16.135 219.204 15.865 219.324 15.613C219.456 15.361 219.642 15.145 219.882 14.965C220.134 14.773 220.44 14.623 220.8 14.515C221.16 14.395 221.574 14.335 222.042 14.335C222.822 14.335 223.482 14.503 224.022 14.839C224.574 15.163 224.898 15.679 224.994 16.387H226.218C226.146 15.943 225.984 15.547 225.732 15.199C225.48 14.839 225.162 14.539 224.778 14.299C224.394 14.047 223.956 13.861 223.464 13.741C222.984 13.609 222.48 13.543 221.952 13.543C221.4 13.543 220.872 13.615 220.368 13.759C219.876 13.903 219.438 14.113 219.054 14.389C218.682 14.665 218.382 15.013 218.154 15.433C217.938 15.853 217.83 16.333 217.83 16.873C217.83 17.581 218.01 18.151 218.37 18.583C218.73 19.015 219.18 19.375 219.72 19.663C220.272 19.951 220.866 20.197 221.502 20.401C222.138 20.605 222.726 20.839 223.266 21.103C223.818 21.355 224.274 21.667 224.634 22.039C224.994 22.411 225.174 22.909 225.174 23.533C225.174 24.313 224.886 24.883 224.31 25.243C223.746 25.603 222.99 25.783 222.042 25.783C221.286 25.783 220.68 25.687 220.224 25.495C219.768 25.291 219.42 25.051 219.18 24.775C218.94 24.499 218.778 24.217 218.694 23.929C218.61 23.629 218.562 23.377 218.55 23.173H217.326ZM232.81 20.059C232.81 20.731 232.936 21.451 233.188 22.219C233.452 22.975 233.86 23.677 234.412 24.325C234.964 24.973 235.666 25.513 236.518 25.945C237.37 26.365 238.39 26.575 239.578 26.575C240.382 26.575 241.108 26.479 241.756 26.287C242.416 26.083 243.004 25.813 243.52 25.477C244.048 25.141 244.504 24.757 244.888 24.325C245.272 23.881 245.584 23.419 245.824 22.939C246.076 22.447 246.262 21.955 246.382 21.463C246.514 20.971 246.58 20.503 246.58 20.059C246.58 19.387 246.442 18.673 246.166 17.917C245.89 17.149 245.464 16.441 244.888 15.793C244.312 15.145 243.58 14.611 242.692 14.191C241.816 13.759 240.778 13.543 239.578 13.543C238.39 13.543 237.37 13.753 236.518 14.173C235.666 14.593 234.964 15.127 234.412 15.775C233.86 16.411 233.452 17.113 233.188 17.881C232.936 18.649 232.81 19.375 232.81 20.059ZM234.574 20.059C234.574 19.219 234.7 18.451 234.952 17.755C235.216 17.047 235.57 16.441 236.014 15.937C236.47 15.433 237.004 15.043 237.616 14.767C238.228 14.479 238.894 14.335 239.614 14.335C240.322 14.335 240.988 14.479 241.612 14.767C242.248 15.043 242.8 15.433 243.268 15.937C243.748 16.441 244.126 17.047 244.402 17.755C244.678 18.451 244.816 19.219 244.816 20.059C244.816 20.899 244.678 21.673 244.402 22.381C244.126 23.077 243.748 23.677 243.268 24.181C242.8 24.685 242.248 25.081 241.612 25.369C240.988 25.645 240.322 25.783 239.614 25.783C238.894 25.783 238.228 25.645 237.616 25.369C237.004 25.081 236.47 24.685 236.014 24.181C235.57 23.677 235.216 23.077 234.952 22.381C234.7 21.673 234.574 20.899 234.574 20.059ZM263.937 26.359V13.759H265.575V25.369H272.073V26.359H263.937ZM279.485 13.759V26.359H281.123V13.759H279.485ZM290.166 26.359H291.804V21.931L293.838 19.753L298.626 26.359H300.498L294.882 18.637L299.454 13.759H298.554L291.804 20.851V13.759H290.166V26.359ZM307.191 13.759V26.359H315.327V25.369H308.829V20.095H314.409V19.267H308.829V14.749H315.327V13.759H307.191Z" fill="black"/>
<path d="M187.578 50.1081L192.127 45.5585H249.979V45.3517H192.127L187.578 40.8538L183.08 45.3517H125.021V45.5585H183.08L187.578 50.1081ZM187.578 41.164L191.92 45.4551L187.578 49.7979L183.235 45.4551L187.578 41.164Z" fill="#555555"/>
</svg>
