<svg width="313" height="43" viewBox="0 0 313 43" fill="none" xmlns="http://www.w3.org/2000/svg">
<path d="M19.6134 23.0393L21.3414 26.7473H23.0874L17.2194 14.1473H16.3194L10.9914 26.7473H11.8194L13.4034 23.0393H19.6134ZM19.2354 22.2293H13.7454L16.3374 16.1633H16.4094L19.2354 22.2293ZM29.975 26.7473V14.1473H34.115C35.111 14.1473 36.023 14.3093 36.851 14.6333C37.679 14.9453 38.387 15.3833 38.975 15.9473C39.575 16.4993 40.037 17.1593 40.361 17.9273C40.697 18.6953 40.865 19.5233 40.865 20.4113C40.865 21.3353 40.691 22.1873 40.343 22.9673C40.007 23.7353 39.539 24.4013 38.939 24.9653C38.351 25.5293 37.661 25.9673 36.869 26.2793C36.077 26.5913 35.231 26.7473 34.331 26.7473H29.975ZM31.613 25.9553H33.593C34.577 25.9553 35.411 25.7933 36.095 25.4693C36.791 25.1333 37.361 24.7013 37.805 24.1733C38.249 23.6453 38.573 23.0573 38.777 22.4093C38.981 21.7493 39.083 21.0953 39.083 20.4473C39.083 19.7273 38.963 19.0373 38.723 18.3773C38.483 17.7053 38.129 17.1173 37.661 16.6133C37.205 16.0973 36.635 15.6893 35.951 15.3893C35.267 15.0893 34.481 14.9393 33.593 14.9393H31.613V25.9553ZM47.7387 26.7473V14.1473H51.8787C52.8747 14.1473 53.7867 14.3093 54.6147 14.6333C55.4427 14.9453 56.1507 15.3833 56.7387 15.9473C57.3387 16.4993 57.8007 17.1593 58.1247 17.9273C58.4607 18.6953 58.6287 19.5233 58.6287 20.4113C58.6287 21.3353 58.4547 22.1873 58.1067 22.9673C57.7707 23.7353 57.3027 24.4013 56.7027 24.9653C56.1147 25.5293 55.4247 25.9673 54.6327 26.2793C53.8407 26.5913 52.9947 26.7473 52.0947 26.7473H47.7387ZM49.3767 25.9553H51.3567C52.3407 25.9553 53.1747 25.7933 53.8587 25.4693C54.5547 25.1333 55.1247 24.7013 55.5687 24.1733C56.0127 23.6453 56.3367 23.0573 56.5407 22.4093C56.7447 21.7493 56.8467 21.0953 56.8467 20.4473C56.8467 19.7273 56.7267 19.0373 56.4867 18.3773C56.2467 17.7053 55.8927 17.1173 55.4247 16.6133C54.9687 16.0973 54.3987 15.6893 53.7147 15.3893C53.0307 15.0893 52.2447 14.9393 51.3567 14.9393H49.3767V25.9553ZM74.1213 23.5613C74.1453 24.0773 74.2773 24.5453 74.5173 24.9653C74.7693 25.3853 75.1053 25.7453 75.5253 26.0453C75.9573 26.3333 76.4613 26.5613 77.0373 26.7293C77.6133 26.8853 78.2433 26.9633 78.9273 26.9633C79.6233 26.9633 80.2473 26.8793 80.7993 26.7113C81.3633 26.5433 81.8433 26.3033 82.2393 25.9913C82.6353 25.6793 82.9413 25.3013 83.1573 24.8573C83.3733 24.4133 83.4813 23.9213 83.4813 23.3813C83.4813 22.6373 83.2953 22.0313 82.9233 21.5633C82.5513 21.0833 82.0833 20.6873 81.5193 20.3753C80.9673 20.0513 80.3613 19.7813 79.7013 19.5653C79.0533 19.3493 78.4473 19.1213 77.8833 18.8813C77.3313 18.6413 76.8693 18.3653 76.4973 18.0533C76.1253 17.7413 75.9393 17.3273 75.9393 16.8113C75.9393 16.5233 75.9993 16.2533 76.1193 16.0013C76.2513 15.7493 76.4373 15.5333 76.6773 15.3533C76.9293 15.1613 77.2353 15.0113 77.5953 14.9033C77.9553 14.7833 78.3693 14.7233 78.8373 14.7233C79.6173 14.7233 80.2773 14.8913 80.8173 15.2273C81.3693 15.5513 81.6933 16.0673 81.7893 16.7753H83.0133C82.9413 16.3313 82.7793 15.9353 82.5273 15.5873C82.2753 15.2273 81.9573 14.9273 81.5733 14.6873C81.1893 14.4353 80.7513 14.2493 80.2593 14.1293C79.7793 13.9973 79.2753 13.9313 78.7473 13.9313C78.1953 13.9313 77.6673 14.0033 77.1633 14.1473C76.6713 14.2913 76.2333 14.5013 75.8493 14.7773C75.4773 15.0533 75.1773 15.4013 74.9493 15.8213C74.7333 16.2413 74.6253 16.7213 74.6253 17.2613C74.6253 17.9693 74.8053 18.5393 75.1653 18.9713C75.5253 19.4033 75.9753 19.7633 76.5153 20.0513C77.0673 20.3393 77.6613 20.5853 78.2973 20.7893C78.9333 20.9933 79.5213 21.2273 80.0613 21.4913C80.6133 21.7433 81.0693 22.0553 81.4293 22.4273C81.7893 22.7993 81.9693 23.2973 81.9693 23.9213C81.9693 24.7013 81.6813 25.2713 81.1053 25.6313C80.5413 25.9913 79.7853 26.1713 78.8373 26.1713C78.0813 26.1713 77.4753 26.0753 77.0193 25.8833C76.5633 25.6793 76.2153 25.4393 75.9753 25.1633C75.7353 24.8873 75.5733 24.6053 75.4893 24.3173C75.4053 24.0173 75.3573 23.7653 75.3453 23.5613H74.1213ZM92.5033 20.4833H100.045V26.7473H101.683V14.1473H100.045V19.6553H92.5033V14.1473H90.8653V26.7473H92.5033V20.4833ZM110.72 14.1473V26.7473H112.358V14.1473H110.72ZM123.038 21.4913C123.35 21.5753 123.686 21.6473 124.046 21.7073C124.406 21.7553 124.802 21.7793 125.234 21.7793C125.966 21.7793 126.614 21.6773 127.178 21.4733C127.742 21.2693 128.21 20.9933 128.582 20.6453C128.966 20.2853 129.254 19.8773 129.446 19.4213C129.638 18.9533 129.734 18.4553 129.734 17.9273C129.734 17.4233 129.65 16.9433 129.482 16.4873C129.314 16.0193 129.056 15.6173 128.708 15.2813C128.372 14.9333 127.946 14.6573 127.43 14.4533C126.914 14.2493 126.308 14.1473 125.612 14.1473H121.4V26.7473H123.038V21.4913ZM123.038 14.9393H124.928C125.432 14.9393 125.876 15.0293 126.26 15.2093C126.644 15.3893 126.962 15.6293 127.214 15.9293C127.466 16.2173 127.652 16.5473 127.772 16.9193C127.904 17.2793 127.97 17.6393 127.97 17.9993C127.97 18.3473 127.91 18.7013 127.79 19.0613C127.682 19.4093 127.502 19.7273 127.25 20.0153C126.998 20.3033 126.68 20.5373 126.296 20.7173C125.912 20.8973 125.45 20.9873 124.91 20.9873C124.538 20.9873 124.196 20.9753 123.884 20.9513C123.572 20.9153 123.29 20.8493 123.038 20.7533V14.9393ZM138.078 21.4913C138.39 21.5753 138.726 21.6473 139.086 21.7073C139.446 21.7553 139.842 21.7793 140.274 21.7793C141.006 21.7793 141.654 21.6773 142.218 21.4733C142.782 21.2693 143.25 20.9933 143.622 20.6453C144.006 20.2853 144.294 19.8773 144.486 19.4213C144.678 18.9533 144.774 18.4553 144.774 17.9273C144.774 17.4233 144.69 16.9433 144.522 16.4873C144.354 16.0193 144.096 15.6173 143.748 15.2813C143.412 14.9333 142.986 14.6573 142.47 14.4533C141.954 14.2493 141.348 14.1473 140.652 14.1473H136.44V26.7473H138.078V21.4913ZM138.078 14.9393H139.968C140.472 14.9393 140.916 15.0293 141.3 15.2093C141.684 15.3893 142.002 15.6293 142.254 15.9293C142.506 16.2173 142.692 16.5473 142.812 16.9193C142.944 17.2793 143.01 17.6393 143.01 17.9993C143.01 18.3473 142.95 18.7013 142.83 19.0613C142.722 19.4093 142.542 19.7273 142.29 20.0153C142.038 20.3033 141.72 20.5373 141.336 20.7173C140.952 20.8973 140.49 20.9873 139.95 20.9873C139.578 20.9873 139.236 20.9753 138.924 20.9513C138.612 20.9153 138.33 20.8493 138.078 20.7533V14.9393ZM152.199 14.1473V26.7473H153.837V14.1473H152.199ZM173.031 14.1473V23.7773H172.959L162.969 13.9313H162.879V26.7473H163.707V17.1173H163.779L173.769 26.9633H173.859V14.1473H173.031ZM193.638 21.1313H190.074V21.8693H192.09V25.1273C191.55 25.4753 190.998 25.7333 190.434 25.9013C189.87 26.0693 189.228 26.1533 188.508 26.1533C187.56 26.1533 186.732 26.0093 186.024 25.7213C185.316 25.4333 184.728 25.0373 184.26 24.5333C183.792 24.0173 183.438 23.4113 183.198 22.7153C182.97 22.0073 182.856 21.2333 182.856 20.3933C182.856 19.5653 182.964 18.8033 183.18 18.1073C183.408 17.4113 183.744 16.8113 184.188 16.3073C184.632 15.8033 185.172 15.4133 185.808 15.1373C186.456 14.8613 187.206 14.7233 188.058 14.7233C188.622 14.7233 189.15 14.7833 189.642 14.9033C190.134 15.0233 190.572 15.1793 190.956 15.3713C191.34 15.5633 191.652 15.7853 191.892 16.0373C192.144 16.2773 192.306 16.5233 192.378 16.7753H193.674C193.566 16.5113 193.38 16.2173 193.116 15.8933C192.864 15.5573 192.516 15.2453 192.072 14.9573C191.628 14.6693 191.076 14.4293 190.416 14.2373C189.768 14.0333 189 13.9313 188.112 13.9313C187.092 13.9313 186.15 14.0753 185.286 14.3633C184.434 14.6513 183.696 15.0653 183.072 15.6053C182.448 16.1453 181.962 16.8113 181.614 17.6033C181.266 18.3833 181.092 19.2713 181.092 20.2673C181.092 21.1193 181.224 21.9473 181.488 22.7513C181.764 23.5433 182.178 24.2573 182.73 24.8933C183.294 25.5173 184.008 26.0213 184.872 26.4053C185.736 26.7773 186.768 26.9633 187.968 26.9633C188.868 26.9633 189.666 26.8673 190.362 26.6753C191.058 26.4713 191.634 26.2493 192.09 26.0093V26.7473H193.638V21.1313ZM218.18 23.0393L219.908 26.7473H221.654L215.786 14.1473H214.886L209.558 26.7473H210.386L211.97 23.0393H218.18ZM217.802 22.2293H212.312L214.904 16.1633H214.976L217.802 22.2293ZM228.541 26.7473V14.1473H232.681C233.677 14.1473 234.589 14.3093 235.417 14.6333C236.245 14.9453 236.953 15.3833 237.541 15.9473C238.141 16.4993 238.603 17.1593 238.927 17.9273C239.263 18.6953 239.431 19.5233 239.431 20.4113C239.431 21.3353 239.257 22.1873 238.909 22.9673C238.573 23.7353 238.105 24.4013 237.505 24.9653C236.917 25.5293 236.227 25.9673 235.435 26.2793C234.643 26.5913 233.797 26.7473 232.897 26.7473H228.541ZM230.179 25.9553H232.159C233.143 25.9553 233.977 25.7933 234.661 25.4693C235.357 25.1333 235.927 24.7013 236.371 24.1733C236.815 23.6453 237.139 23.0573 237.343 22.4093C237.547 21.7493 237.649 21.0953 237.649 20.4473C237.649 19.7273 237.529 19.0373 237.289 18.3773C237.049 17.7053 236.695 17.1173 236.227 16.6133C235.771 16.0973 235.201 15.6893 234.517 15.3893C233.833 15.0893 233.047 14.9393 232.159 14.9393H230.179V25.9553ZM246.125 14.1473V26.7473H247.763V21.1853H248.555C248.891 21.1853 249.167 21.2153 249.383 21.2753C249.611 21.3353 249.815 21.4373 249.995 21.5813C250.175 21.7253 250.343 21.9113 250.499 22.1393C250.655 22.3673 250.841 22.6493 251.057 22.9853L252.479 25.0913C252.659 25.3673 252.833 25.6193 253.001 25.8473C253.181 26.0753 253.373 26.2733 253.577 26.4413C253.781 26.5973 254.009 26.7233 254.261 26.8193C254.525 26.9153 254.837 26.9633 255.197 26.9633C255.461 26.9633 255.677 26.9513 255.845 26.9273C256.013 26.9033 256.181 26.8433 256.349 26.7473V26.0813C256.289 26.0933 256.229 26.1053 256.169 26.1173C256.109 26.1173 256.049 26.1173 255.989 26.1173C255.737 26.1173 255.515 26.0813 255.323 26.0093C255.131 25.9373 254.951 25.8353 254.783 25.7033C254.615 25.5593 254.453 25.3913 254.297 25.1993C254.141 24.9953 253.979 24.7673 253.811 24.5153C253.307 23.7833 252.917 23.2013 252.641 22.7693C252.365 22.3253 252.143 21.9833 251.975 21.7433C251.819 21.5033 251.687 21.3293 251.579 21.2213C251.483 21.1133 251.363 21.0233 251.219 20.9513L251.039 20.8613V20.7893C251.615 20.7533 252.107 20.6273 252.515 20.4113C252.935 20.1953 253.277 19.9253 253.541 19.6013C253.805 19.2773 253.997 18.9293 254.117 18.5573C254.237 18.1733 254.297 17.8013 254.297 17.4413C254.297 17.1173 254.231 16.7633 254.099 16.3793C253.979 15.9953 253.763 15.6413 253.451 15.3173C253.151 14.9813 252.737 14.7053 252.209 14.4893C251.681 14.2613 251.015 14.1473 250.211 14.1473H246.125ZM247.763 14.9393H249.581C250.037 14.9393 250.445 15.0053 250.805 15.1373C251.177 15.2693 251.495 15.4553 251.759 15.6953C252.023 15.9233 252.221 16.1993 252.353 16.5233C252.497 16.8473 252.569 17.2013 252.569 17.5853C252.569 17.9093 252.503 18.2393 252.371 18.5753C252.251 18.8993 252.065 19.1993 251.813 19.4753C251.561 19.7393 251.249 19.9553 250.877 20.1233C250.517 20.2913 250.097 20.3753 249.617 20.3753H247.763V14.9393ZM263.045 14.1473V26.7473H271.181V25.7573H264.683V20.4833H270.263V19.6553H264.683V15.1373H271.181V14.1473H263.045ZM276.379 23.5613C276.403 24.0773 276.535 24.5453 276.775 24.9653C277.027 25.3853 277.363 25.7453 277.783 26.0453C278.215 26.3333 278.719 26.5613 279.295 26.7293C279.871 26.8853 280.501 26.9633 281.185 26.9633C281.881 26.9633 282.505 26.8793 283.057 26.7113C283.621 26.5433 284.101 26.3033 284.497 25.9913C284.893 25.6793 285.199 25.3013 285.415 24.8573C285.631 24.4133 285.739 23.9213 285.739 23.3813C285.739 22.6373 285.553 22.0313 285.181 21.5633C284.809 21.0833 284.341 20.6873 283.777 20.3753C283.225 20.0513 282.619 19.7813 281.959 19.5653C281.311 19.3493 280.705 19.1213 280.141 18.8813C279.589 18.6413 279.127 18.3653 278.755 18.0533C278.383 17.7413 278.197 17.3273 278.197 16.8113C278.197 16.5233 278.257 16.2533 278.377 16.0013C278.509 15.7493 278.695 15.5333 278.935 15.3533C279.187 15.1613 279.493 15.0113 279.853 14.9033C280.213 14.7833 280.627 14.7233 281.095 14.7233C281.875 14.7233 282.535 14.8913 283.075 15.2273C283.627 15.5513 283.951 16.0673 284.047 16.7753H285.271C285.199 16.3313 285.037 15.9353 284.785 15.5873C284.533 15.2273 284.215 14.9273 283.831 14.6873C283.447 14.4353 283.009 14.2493 282.517 14.1293C282.037 13.9973 281.533 13.9313 281.005 13.9313C280.453 13.9313 279.925 14.0033 279.421 14.1473C278.929 14.2913 278.491 14.5013 278.107 14.7773C277.735 15.0533 277.435 15.4013 277.207 15.8213C276.991 16.2413 276.883 16.7213 276.883 17.2613C276.883 17.9693 277.063 18.5393 277.423 18.9713C277.783 19.4033 278.233 19.7633 278.773 20.0513C279.325 20.3393 279.919 20.5853 280.555 20.7893C281.191 20.9933 281.779 21.2273 282.319 21.4913C282.871 21.7433 283.327 22.0553 283.687 22.4273C284.047 22.7993 284.227 23.2973 284.227 23.9213C284.227 24.7013 283.939 25.2713 283.363 25.6313C282.799 25.9913 282.043 26.1713 281.095 26.1713C280.339 26.1713 279.733 26.0753 279.277 25.8833C278.821 25.6793 278.473 25.4393 278.233 25.1633C277.993 24.8873 277.831 24.6053 277.747 24.3173C277.663 24.0173 277.615 23.7653 277.603 23.5613H276.379ZM291.629 23.5613C291.653 24.0773 291.785 24.5453 292.025 24.9653C292.277 25.3853 292.613 25.7453 293.033 26.0453C293.465 26.3333 293.969 26.5613 294.545 26.7293C295.121 26.8853 295.751 26.9633 296.435 26.9633C297.131 26.9633 297.755 26.8793 298.307 26.7113C298.871 26.5433 299.351 26.3033 299.747 25.9913C300.143 25.6793 300.449 25.3013 300.665 24.8573C300.881 24.4133 300.989 23.9213 300.989 23.3813C300.989 22.6373 300.803 22.0313 300.431 21.5633C300.059 21.0833 299.591 20.6873 299.027 20.3753C298.475 20.0513 297.869 19.7813 297.209 19.5653C296.561 19.3493 295.955 19.1213 295.391 18.8813C294.839 18.6413 294.377 18.3653 294.005 18.0533C293.633 17.7413 293.447 17.3273 293.447 16.8113C293.447 16.5233 293.507 16.2533 293.627 16.0013C293.759 15.7493 293.945 15.5333 294.185 15.3533C294.437 15.1613 294.743 15.0113 295.103 14.9033C295.463 14.7833 295.877 14.7233 296.345 14.7233C297.125 14.7233 297.785 14.8913 298.325 15.2273C298.877 15.5513 299.201 16.0673 299.297 16.7753H300.521C300.449 16.3313 300.287 15.9353 300.035 15.5873C299.783 15.2273 299.465 14.9273 299.081 14.6873C298.697 14.4353 298.259 14.2493 297.767 14.1293C297.287 13.9973 296.783 13.9313 296.255 13.9313C295.703 13.9313 295.175 14.0033 294.671 14.1473C294.179 14.2913 293.741 14.5013 293.357 14.7773C292.985 15.0533 292.685 15.4013 292.457 15.8213C292.241 16.2413 292.133 16.7213 292.133 17.2613C292.133 17.9693 292.313 18.5393 292.673 18.9713C293.033 19.4033 293.483 19.7633 294.023 20.0513C294.575 20.3393 295.169 20.5853 295.805 20.7893C296.441 20.9933 297.029 21.2273 297.569 21.4913C298.121 21.7433 298.577 22.0553 298.937 22.4273C299.297 22.7993 299.477 23.2973 299.477 23.9213C299.477 24.7013 299.189 25.2713 298.613 25.6313C298.049 25.9913 297.293 26.1713 296.345 26.1713C295.589 26.1713 294.983 26.0753 294.527 25.8833C294.071 25.6793 293.723 25.4393 293.483 25.1633C293.243 24.8873 293.081 24.6053 292.997 24.3173C292.913 24.0173 292.865 23.7653 292.853 23.5613H291.629Z" fill="black"/>
<path d="M156.409 42.5776L160.959 38.028H218.811V37.8212H160.959L156.409 33.3233L151.912 37.8212H93.8525V38.028H151.912L156.409 42.5776ZM156.409 33.6335L160.752 37.9246L156.409 42.2674L152.067 37.9246L156.409 33.6335Z" fill="#555555"/>
</svg>
