<svg width="375" height="50" viewBox="0 0 375 50" fill="none" xmlns="http://www.w3.org/2000/svg">
<path d="M113.919 13.8241V23.4541H113.847L103.857 13.6081H103.767V26.4241H104.595V16.7941H104.667L114.657 26.6401H114.747V13.8241H113.919ZM123.06 13.8241V26.4241H131.196V25.4341H124.698V20.1601H130.278V19.3321H124.698V14.8141H131.196V13.8241H123.06ZM136.268 13.8241L140.732 26.4241H141.812L145.25 16.5781H145.34L148.67 26.4241H149.732L154.196 13.8241H153.368L149.642 24.3361H149.57L146.06 13.8241H145.286L141.704 24.2821H141.632L137.924 13.8241H136.268ZM178.185 22.7161L179.913 26.4241H181.659L175.791 13.8241H174.891L169.563 26.4241H170.391L171.975 22.7161H178.185ZM177.807 21.9061H172.317L174.909 15.8401H174.981L177.807 21.9061ZM188.367 13.8241V26.4241H190.005V20.8621H190.797C191.133 20.8621 191.409 20.8921 191.625 20.9521C191.853 21.0121 192.057 21.1141 192.237 21.2581C192.417 21.4021 192.585 21.5881 192.741 21.8161C192.897 22.0441 193.083 22.3261 193.299 22.6621L194.721 24.7681C194.901 25.0441 195.075 25.2961 195.243 25.5241C195.423 25.7521 195.615 25.9501 195.819 26.1181C196.023 26.2741 196.251 26.4001 196.503 26.4961C196.767 26.5921 197.079 26.6401 197.439 26.6401C197.703 26.6401 197.919 26.6281 198.087 26.6041C198.255 26.5801 198.423 26.5201 198.591 26.4241V25.7581C198.531 25.7701 198.471 25.7821 198.411 25.7941C198.351 25.7941 198.291 25.7941 198.231 25.7941C197.979 25.7941 197.757 25.7581 197.565 25.6861C197.373 25.6141 197.193 25.5121 197.025 25.3801C196.857 25.2361 196.695 25.0681 196.539 24.8761C196.383 24.6721 196.221 24.4441 196.053 24.1921C195.549 23.4601 195.159 22.8781 194.883 22.4461C194.607 22.0021 194.385 21.6601 194.217 21.4201C194.061 21.1801 193.929 21.0061 193.821 20.8981C193.725 20.7901 193.605 20.7001 193.461 20.6281L193.281 20.5381V20.4661C193.857 20.4301 194.349 20.3041 194.757 20.0881C195.177 19.8721 195.519 19.6021 195.783 19.2781C196.047 18.9541 196.239 18.6061 196.359 18.2341C196.479 17.8501 196.539 17.4781 196.539 17.1181C196.539 16.7941 196.473 16.4401 196.341 16.0561C196.221 15.6721 196.005 15.3181 195.693 14.9941C195.393 14.6581 194.979 14.3821 194.451 14.1661C193.923 13.9381 193.257 13.8241 192.453 13.8241H188.367ZM190.005 14.6161H191.823C192.279 14.6161 192.687 14.6821 193.047 14.8141C193.419 14.9461 193.737 15.1321 194.001 15.3721C194.265 15.6001 194.463 15.8761 194.595 16.2001C194.739 16.5241 194.811 16.8781 194.811 17.2621C194.811 17.5861 194.745 17.9161 194.613 18.2521C194.493 18.5761 194.307 18.8761 194.055 19.1521C193.803 19.4161 193.491 19.6321 193.119 19.8001C192.759 19.9681 192.339 20.0521 191.859 20.0521H190.005V14.6161ZM205.287 13.8241V26.4241H206.925V20.8621H207.717C208.053 20.8621 208.329 20.8921 208.545 20.9521C208.773 21.0121 208.977 21.1141 209.157 21.2581C209.337 21.4021 209.505 21.5881 209.661 21.8161C209.817 22.0441 210.003 22.3261 210.219 22.6621L211.641 24.7681C211.821 25.0441 211.995 25.2961 212.163 25.5241C212.343 25.7521 212.535 25.9501 212.739 26.1181C212.943 26.2741 213.171 26.4001 213.423 26.4961C213.687 26.5921 213.999 26.6401 214.359 26.6401C214.623 26.6401 214.839 26.6281 215.007 26.6041C215.175 26.5801 215.343 26.5201 215.511 26.4241V25.7581C215.451 25.7701 215.391 25.7821 215.331 25.7941C215.271 25.7941 215.211 25.7941 215.151 25.7941C214.899 25.7941 214.677 25.7581 214.485 25.6861C214.293 25.6141 214.113 25.5121 213.945 25.3801C213.777 25.2361 213.615 25.0681 213.459 24.8761C213.303 24.6721 213.141 24.4441 212.973 24.1921C212.469 23.4601 212.079 22.8781 211.803 22.4461C211.527 22.0021 211.305 21.6601 211.137 21.4201C210.981 21.1801 210.849 21.0061 210.741 20.8981C210.645 20.7901 210.525 20.7001 210.381 20.6281L210.201 20.5381V20.4661C210.777 20.4301 211.269 20.3041 211.677 20.0881C212.097 19.8721 212.439 19.6021 212.703 19.2781C212.967 18.9541 213.159 18.6061 213.279 18.2341C213.399 17.8501 213.459 17.4781 213.459 17.1181C213.459 16.7941 213.393 16.4401 213.261 16.0561C213.141 15.6721 212.925 15.3181 212.613 14.9941C212.313 14.6581 211.899 14.3821 211.371 14.1661C210.843 13.9381 210.177 13.8241 209.373 13.8241H205.287ZM206.925 14.6161H208.743C209.199 14.6161 209.607 14.6821 209.967 14.8141C210.339 14.9461 210.657 15.1321 210.921 15.3721C211.185 15.6001 211.383 15.8761 211.515 16.2001C211.659 16.5241 211.731 16.8781 211.731 17.2621C211.731 17.5861 211.665 17.9161 211.533 18.2521C211.413 18.5761 211.227 18.8761 210.975 19.1521C210.723 19.4161 210.411 19.6321 210.039 19.8001C209.679 19.9681 209.259 20.0521 208.779 20.0521H206.925V14.6161ZM222.927 13.8241V26.4241H224.565V13.8241H222.927ZM231.987 13.8241L237.261 26.4241H238.341L243.453 13.8241H242.517L238.323 24.1921H238.251L233.931 13.8241H231.987ZM255.543 22.7161L257.271 26.4241H259.017L253.149 13.8241H252.249L246.921 26.4241H247.749L249.333 22.7161H255.543ZM255.165 21.9061H249.675L252.267 15.8401H252.339L255.165 21.9061ZM265.724 26.4241V13.8241H267.362V25.4341H273.86V26.4241H265.724Z" fill="black"/>
<path d="M188.078 42.2543L192.627 37.7047H250.479V37.4979H192.627L188.078 33L183.58 37.4979H125.521V37.7047H183.58L188.078 42.2543ZM188.078 33.3102L192.42 37.6013L188.078 41.9441L183.735 37.6013L188.078 33.3102Z" fill="#555555"/>
</svg>
